<?xml version="1.0" encoding="UTF-8"?>
<svg xmlns="http://www.w3.org/2000/svg" width="800.000" height="600.000" viewBox="0.0 0.0 800.000 600.000" version="1.1">
  <desc>Produce by Acme CAD Converter</desc>
<path d="M44.77 199.72L755.23 199.72"
fill="none" stroke="red" stroke-width="0.5"/>
<path d="M755.23 199.72L755.23 199.72Z"
fill="none" stroke="red" stroke-width="0.5"/>
<path d="M755.23 199.72L756.78 199.9"
fill="none" stroke="red" stroke-width="0.5"/>
<path d="M756.78 199.9L758.25 200.41"
fill="none" stroke="red" stroke-width="0.5"/>
<path d="M758.25 200.41L759.57 201.24"
fill="none" stroke="red" stroke-width="0.5"/>
<path d="M759.57 201.24L760.67 202.35"
fill="none" stroke="red" stroke-width="0.5"/>
<path d="M760.67 202.35L761.5 203.67"
fill="none" stroke="red" stroke-width="0.5"/>
<path d="M761.5 203.67L762.02 205.14"
fill="none" stroke="red" stroke-width="0.5"/>
<path d="M762.02 205.14L762.19 206.69"
fill="none" stroke="red" stroke-width="0.5"/>
<path d="M762.19 206.69L762.19 394.75Z"
fill="none" stroke="red" stroke-width="0.5"/>
<path d="M762.19 394.75L762.19 401.72Z"
fill="none" stroke="red" stroke-width="0.5"/>
<path d="M762.19 401.72L755.23 401.72"
fill="none" stroke="red" stroke-width="0.5"/>
<path d="M755.23 401.72L44.77 401.72"
fill="none" stroke="red" stroke-width="0.5"/>
<path d="M44.77 401.72L37.81 401.72"
fill="none" stroke="red" stroke-width="0.5"/>
<path d="M37.81 401.72L37.81 394.75Z"
fill="none" stroke="red" stroke-width="0.5"/>
<path d="M37.81 394.75L37.81 206.69Z"
fill="none" stroke="red" stroke-width="0.5"/>
<path d="M37.81 206.69L37.81 206.69Z"
fill="none" stroke="red" stroke-width="0.5"/>
<path d="M37.81 206.69L37.98 205.14"
fill="none" stroke="red" stroke-width="0.5"/>
<path d="M37.98 205.14L38.5 203.67"
fill="none" stroke="red" stroke-width="0.5"/>
<path d="M38.5 203.67L39.33 202.35"
fill="none" stroke="red" stroke-width="0.5"/>
<path d="M39.33 202.35L40.43 201.24"
fill="none" stroke="red" stroke-width="0.5"/>
<path d="M40.43 201.24L41.75 200.41"
fill="none" stroke="red" stroke-width="0.5"/>
<path d="M41.75 200.41L43.22 199.9"
fill="none" stroke="red" stroke-width="0.5"/>
<path d="M43.22 199.9L44.77 199.72"
fill="none" stroke="red" stroke-width="0.5"/>
<path d="M521.9 339.79L521.73 338.24"
fill="none" stroke="red" stroke-width="0.5"/>
<path d="M521.73 338.24L521.21 336.76"
fill="none" stroke="red" stroke-width="0.5"/>
<path d="M521.21 336.76L520.38 335.44"
fill="none" stroke="red" stroke-width="0.5"/>
<path d="M520.38 335.44L519.28 334.34"
fill="none" stroke="red" stroke-width="0.5"/>
<path d="M519.28 334.34L517.96 333.51"
fill="none" stroke="red" stroke-width="0.5"/>
<path d="M517.96 333.51L516.49 333"
fill="none" stroke="red" stroke-width="0.5"/>
<path d="M516.49 333L514.94 332.82"
fill="none" stroke="red" stroke-width="0.5"/>
<path d="M514.94 332.82L285.08 332.82"
fill="none" stroke="red" stroke-width="0.5"/>
<path d="M285.08 332.82L285.08 332.82Z"
fill="none" stroke="red" stroke-width="0.5"/>
<path d="M285.08 332.82L283.53 333"
fill="none" stroke="red" stroke-width="0.5"/>
<path d="M283.53 333L282.06 333.51"
fill="none" stroke="red" stroke-width="0.5"/>
<path d="M282.06 333.51L280.74 334.34"
fill="none" stroke="red" stroke-width="0.5"/>
<path d="M280.74 334.34L279.64 335.44"
fill="none" stroke="red" stroke-width="0.5"/>
<path d="M279.64 335.44L278.81 336.76"
fill="none" stroke="red" stroke-width="0.5"/>
<path d="M278.81 336.76L278.29 338.24"
fill="none" stroke="red" stroke-width="0.5"/>
<path d="M278.29 338.24L278.12 339.79"
fill="none" stroke="red" stroke-width="0.5"/>
<path d="M278.12 339.79L521.9 339.79"
fill="none" stroke="red" stroke-width="0.5"/>
<path d="M285.08 350.23L514.94 350.23"
fill="none" stroke="red" stroke-width="0.5"/>
<path d="M514.94 350.23L514.94 350.23Z"
fill="none" stroke="red" stroke-width="0.5"/>
<path d="M514.94 350.23L516.49 350.06"
fill="none" stroke="red" stroke-width="0.5"/>
<path d="M516.49 350.06L517.96 349.54"
fill="none" stroke="red" stroke-width="0.5"/>
<path d="M517.96 349.54L519.28 348.71"
fill="none" stroke="red" stroke-width="0.5"/>
<path d="M519.28 348.71L520.38 347.61"
fill="none" stroke="red" stroke-width="0.5"/>
<path d="M520.38 347.61L521.21 346.29"
fill="none" stroke="red" stroke-width="0.5"/>
<path d="M521.21 346.29L521.73 344.82"
fill="none" stroke="red" stroke-width="0.5"/>
<path d="M521.73 344.82L521.9 343.27"
fill="none" stroke="red" stroke-width="0.5"/>
<path d="M521.9 343.27L278.12 343.27"
fill="none" stroke="red" stroke-width="0.5"/>
<path d="M278.12 343.27L278.12 343.27Z"
fill="none" stroke="red" stroke-width="0.5"/>
<path d="M278.12 343.27L278.29 344.82"
fill="none" stroke="red" stroke-width="0.5"/>
<path d="M278.29 344.82L278.81 346.29"
fill="none" stroke="red" stroke-width="0.5"/>
<path d="M278.81 346.29L279.64 347.61"
fill="none" stroke="red" stroke-width="0.5"/>
<path d="M279.64 347.61L280.74 348.71"
fill="none" stroke="red" stroke-width="0.5"/>
<path d="M280.74 348.71L282.06 349.54"
fill="none" stroke="red" stroke-width="0.5"/>
<path d="M282.06 349.54L283.53 350.06"
fill="none" stroke="red" stroke-width="0.5"/>
<path d="M283.53 350.06L285.08 350.23"
fill="none" stroke="red" stroke-width="0.5"/>
<path d="M260.71 339.79L260.53 338.24"
fill="none" stroke="red" stroke-width="0.5"/>
<path d="M260.53 338.24L260.02 336.76"
fill="none" stroke="red" stroke-width="0.5"/>
<path d="M260.02 336.76L259.19 335.44"
fill="none" stroke="red" stroke-width="0.5"/>
<path d="M259.19 335.44L258.08 334.34"
fill="none" stroke="red" stroke-width="0.5"/>
<path d="M258.08 334.34L256.76 333.51"
fill="none" stroke="red" stroke-width="0.5"/>
<path d="M256.76 333.51L255.29 333"
fill="none" stroke="red" stroke-width="0.5"/>
<path d="M255.29 333L253.74 332.82"
fill="none" stroke="red" stroke-width="0.5"/>
<path d="M253.74 332.82L198.02 332.82"
fill="none" stroke="red" stroke-width="0.5"/>
<path d="M198.02 332.82L198.02 332.82Z"
fill="none" stroke="red" stroke-width="0.5"/>
<path d="M198.02 332.82L196.47 333"
fill="none" stroke="red" stroke-width="0.5"/>
<path d="M196.47 333L195 333.51"
fill="none" stroke="red" stroke-width="0.5"/>
<path d="M195 333.51L193.67 334.34"
fill="none" stroke="red" stroke-width="0.5"/>
<path d="M193.67 334.34L192.57 335.44"
fill="none" stroke="red" stroke-width="0.5"/>
<path d="M192.57 335.44L191.74 336.76"
fill="none" stroke="red" stroke-width="0.5"/>
<path d="M191.74 336.76L191.23 338.24"
fill="none" stroke="red" stroke-width="0.5"/>
<path d="M191.23 338.24L191.05 339.79"
fill="none" stroke="red" stroke-width="0.5"/>
<path d="M191.05 339.79L260.71 339.79"
fill="none" stroke="red" stroke-width="0.5"/>
<path d="M253.74 350.23L198.02 350.23"
fill="none" stroke="red" stroke-width="0.5"/>
<path d="M198.02 350.23L198.02 350.23Z"
fill="none" stroke="red" stroke-width="0.5"/>
<path d="M198.02 350.23L196.47 350.06"
fill="none" stroke="red" stroke-width="0.5"/>
<path d="M196.47 350.06L195 349.54"
fill="none" stroke="red" stroke-width="0.5"/>
<path d="M195 349.54L193.67 348.71"
fill="none" stroke="red" stroke-width="0.5"/>
<path d="M193.67 348.71L192.57 347.61"
fill="none" stroke="red" stroke-width="0.5"/>
<path d="M192.57 347.61L191.74 346.29"
fill="none" stroke="red" stroke-width="0.5"/>
<path d="M191.74 346.29L191.23 344.82"
fill="none" stroke="red" stroke-width="0.5"/>
<path d="M191.23 344.82L191.05 343.27"
fill="none" stroke="red" stroke-width="0.5"/>
<path d="M191.05 343.27L260.71 343.27"
fill="none" stroke="red" stroke-width="0.5"/>
<path d="M260.71 343.27L260.71 343.27Z"
fill="none" stroke="red" stroke-width="0.5"/>
<path d="M260.71 343.27L260.53 344.82"
fill="none" stroke="red" stroke-width="0.5"/>
<path d="M260.53 344.82L260.02 346.29"
fill="none" stroke="red" stroke-width="0.5"/>
<path d="M260.02 346.29L259.19 347.61"
fill="none" stroke="red" stroke-width="0.5"/>
<path d="M259.19 347.61L258.08 348.71"
fill="none" stroke="red" stroke-width="0.5"/>
<path d="M258.08 348.71L256.76 349.54"
fill="none" stroke="red" stroke-width="0.5"/>
<path d="M256.76 349.54L255.29 350.06"
fill="none" stroke="red" stroke-width="0.5"/>
<path d="M255.29 350.06L253.74 350.23"
fill="none" stroke="red" stroke-width="0.5"/>
<path d="M546.28 350.23L602 350.23"
fill="none" stroke="red" stroke-width="0.5"/>
<path d="M602 350.23L602 350.23Z"
fill="none" stroke="red" stroke-width="0.5"/>
<path d="M602 350.23L603.55 350.06"
fill="none" stroke="red" stroke-width="0.5"/>
<path d="M603.55 350.06L605.03 349.54"
fill="none" stroke="red" stroke-width="0.5"/>
<path d="M605.03 349.54L606.35 348.71"
fill="none" stroke="red" stroke-width="0.5"/>
<path d="M606.35 348.71L607.45 347.61"
fill="none" stroke="red" stroke-width="0.5"/>
<path d="M607.45 347.61L608.28 346.29"
fill="none" stroke="red" stroke-width="0.5"/>
<path d="M608.28 346.29L608.79 344.82"
fill="none" stroke="red" stroke-width="0.5"/>
<path d="M608.79 344.82L608.97 343.27"
fill="none" stroke="red" stroke-width="0.5"/>
<path d="M608.97 343.27L539.32 343.27"
fill="none" stroke="red" stroke-width="0.5"/>
<path d="M539.32 343.27L539.32 343.27Z"
fill="none" stroke="red" stroke-width="0.5"/>
<path d="M539.32 343.27L539.49 344.82"
fill="none" stroke="red" stroke-width="0.5"/>
<path d="M539.49 344.82L540.01 346.29"
fill="none" stroke="red" stroke-width="0.5"/>
<path d="M540.01 346.29L540.84 347.61"
fill="none" stroke="red" stroke-width="0.5"/>
<path d="M540.84 347.61L541.94 348.71"
fill="none" stroke="red" stroke-width="0.5"/>
<path d="M541.94 348.71L543.26 349.54"
fill="none" stroke="red" stroke-width="0.5"/>
<path d="M543.26 349.54L544.73 350.06"
fill="none" stroke="red" stroke-width="0.5"/>
<path d="M544.73 350.06L546.28 350.23"
fill="none" stroke="red" stroke-width="0.5"/>
<path d="M546.28 332.82L602 332.82"
fill="none" stroke="red" stroke-width="0.5"/>
<path d="M602 332.82L602 332.82Z"
fill="none" stroke="red" stroke-width="0.5"/>
<path d="M602 332.82L603.55 333"
fill="none" stroke="red" stroke-width="0.5"/>
<path d="M603.55 333L605.03 333.51"
fill="none" stroke="red" stroke-width="0.5"/>
<path d="M605.03 333.51L606.35 334.34"
fill="none" stroke="red" stroke-width="0.5"/>
<path d="M606.35 334.34L607.45 335.44"
fill="none" stroke="red" stroke-width="0.5"/>
<path d="M607.45 335.44L608.28 336.76"
fill="none" stroke="red" stroke-width="0.5"/>
<path d="M608.28 336.76L608.79 338.24"
fill="none" stroke="red" stroke-width="0.5"/>
<path d="M608.79 338.24L608.97 339.79"
fill="none" stroke="red" stroke-width="0.5"/>
<path d="M608.97 339.79L539.32 339.79"
fill="none" stroke="red" stroke-width="0.5"/>
<path d="M539.32 339.79L539.32 339.79Z"
fill="none" stroke="red" stroke-width="0.5"/>
<path d="M539.32 339.79L539.49 338.24"
fill="none" stroke="red" stroke-width="0.5"/>
<path d="M539.49 338.24L540.01 336.76"
fill="none" stroke="red" stroke-width="0.5"/>
<path d="M540.01 336.76L540.84 335.44"
fill="none" stroke="red" stroke-width="0.5"/>
<path d="M540.84 335.44L541.94 334.34"
fill="none" stroke="red" stroke-width="0.5"/>
<path d="M541.94 334.34L543.26 333.51"
fill="none" stroke="red" stroke-width="0.5"/>
<path d="M543.26 333.51L544.73 333"
fill="none" stroke="red" stroke-width="0.5"/>
<path d="M544.73 333L546.28 332.82"
fill="none" stroke="red" stroke-width="0.5"/>
<path d="M54.93 217.13L54.93 251.97Z"
fill="none" stroke="red" stroke-width="0.5"/>
<path d="M54.93 251.97L72.34 251.97"
fill="none" stroke="red" stroke-width="0.5"/>
<path d="M72.34 251.97L72.34 217.13Z"
fill="none" stroke="red" stroke-width="0.5"/>
<path d="M72.34 217.13L54.93 217.13"
fill="none" stroke="red" stroke-width="0.5"/>
<path d="M54.93 321.62L54.93 373.85Z"
fill="none" stroke="red" stroke-width="0.5"/>
<path d="M54.93 373.85L72.34 373.85"
fill="none" stroke="red" stroke-width="0.5"/>
<path d="M72.34 373.85L72.34 321.62Z"
fill="none" stroke="red" stroke-width="0.5"/>
<path d="M72.34 321.62L54.93 321.62"
fill="none" stroke="red" stroke-width="0.5"/>
<path d="M199.46 356.44L94.98 356.44"
fill="none" stroke="red" stroke-width="0.5"/>
<path d="M94.98 356.44L94.98 373.85Z"
fill="none" stroke="red" stroke-width="0.5"/>
<path d="M94.98 373.85L199.46 373.85"
fill="none" stroke="red" stroke-width="0.5"/>
<path d="M199.46 373.85L199.46 356.44Z"
fill="none" stroke="red" stroke-width="0.5"/>
<path d="M495.48 356.44L303.93 356.44"
fill="none" stroke="red" stroke-width="0.5"/>
<path d="M303.93 356.44L303.93 373.85Z"
fill="none" stroke="red" stroke-width="0.5"/>
<path d="M303.93 373.85L495.48 373.85"
fill="none" stroke="red" stroke-width="0.5"/>
<path d="M495.48 373.85L495.48 356.44Z"
fill="none" stroke="red" stroke-width="0.5"/>
<path d="M704.44 356.44L599.96 356.44"
fill="none" stroke="red" stroke-width="0.5"/>
<path d="M599.96 356.44L599.96 373.85Z"
fill="none" stroke="red" stroke-width="0.5"/>
<path d="M599.96 373.85L704.44 373.85"
fill="none" stroke="red" stroke-width="0.5"/>
<path d="M704.44 373.85L704.44 356.44Z"
fill="none" stroke="red" stroke-width="0.5"/>
<path d="M727.07 321.62L727.07 373.85Z"
fill="none" stroke="red" stroke-width="0.5"/>
<path d="M727.07 373.85L744.49 373.85"
fill="none" stroke="red" stroke-width="0.5"/>
<path d="M744.49 373.85L744.49 321.62Z"
fill="none" stroke="red" stroke-width="0.5"/>
<path d="M744.49 321.62L727.07 321.62"
fill="none" stroke="red" stroke-width="0.5"/>
<path d="M727.07 217.13L727.07 251.97Z"
fill="none" stroke="red" stroke-width="0.5"/>
<path d="M727.07 251.97L744.49 251.97"
fill="none" stroke="red" stroke-width="0.5"/>
<path d="M744.49 251.97L744.49 217.13Z"
fill="none" stroke="red" stroke-width="0.5"/>
<path d="M744.49 217.13L727.07 217.13"
fill="none" stroke="red" stroke-width="0.5"/>
<path d="M410.45 290.27L410.26 292.25"
fill="none" stroke="red" stroke-width="0.5"/>
<path d="M410.26 292.25L409.7 294.16"
fill="none" stroke="red" stroke-width="0.5"/>
<path d="M409.7 294.16L408.79 295.92"
fill="none" stroke="red" stroke-width="0.5"/>
<path d="M408.79 295.92L407.56 297.48"
fill="none" stroke="red" stroke-width="0.5"/>
<path d="M407.56 297.48L406.06 298.78"
fill="none" stroke="red" stroke-width="0.5"/>
<path d="M406.06 298.78L404.34 299.78"
fill="none" stroke="red" stroke-width="0.5"/>
<path d="M404.34 299.78L402.46 300.43"
fill="none" stroke="red" stroke-width="0.5"/>
<path d="M402.46 300.43L400.5 300.71"
fill="none" stroke="red" stroke-width="0.5"/>
<path d="M400.5 300.71L398.51 300.61"
fill="none" stroke="red" stroke-width="0.5"/>
<path d="M398.51 300.61L396.58 300.15"
fill="none" stroke="red" stroke-width="0.5"/>
<path d="M396.58 300.15L394.78 299.32"
fill="none" stroke="red" stroke-width="0.5"/>
<path d="M394.78 299.32L393.16 298.17"
fill="none" stroke="red" stroke-width="0.5"/>
<path d="M393.16 298.17L391.79 296.73"
fill="none" stroke="red" stroke-width="0.5"/>
<path d="M391.79 296.73L390.71 295.06"
fill="none" stroke="red" stroke-width="0.5"/>
<path d="M390.71 295.06L389.98 293.22"
fill="none" stroke="red" stroke-width="0.5"/>
<path d="M389.98 293.22L389.6 291.27"
fill="none" stroke="red" stroke-width="0.5"/>
<path d="M389.6 291.27L389.6 289.28Z"
fill="none" stroke="red" stroke-width="0.5"/>
<path d="M389.6 289.28L389.98 287.33"
fill="none" stroke="red" stroke-width="0.5"/>
<path d="M389.98 287.33L390.71 285.49"
fill="none" stroke="red" stroke-width="0.5"/>
<path d="M390.71 285.49L391.79 283.81"
fill="none" stroke="red" stroke-width="0.5"/>
<path d="M391.79 283.81L393.16 282.38"
fill="none" stroke="red" stroke-width="0.5"/>
<path d="M393.16 282.38L394.78 281.23"
fill="none" stroke="red" stroke-width="0.5"/>
<path d="M394.78 281.23L396.58 280.4"
fill="none" stroke="red" stroke-width="0.5"/>
<path d="M396.58 280.4L398.51 279.93"
fill="none" stroke="red" stroke-width="0.5"/>
<path d="M398.51 279.93L400.5 279.84"
fill="none" stroke="red" stroke-width="0.5"/>
<path d="M400.5 279.84L402.46 280.12"
fill="none" stroke="red" stroke-width="0.5"/>
<path d="M402.46 280.12L404.34 280.77"
fill="none" stroke="red" stroke-width="0.5"/>
<path d="M404.34 280.77L406.06 281.76"
fill="none" stroke="red" stroke-width="0.5"/>
<path d="M406.06 281.76L407.56 283.06"
fill="none" stroke="red" stroke-width="0.5"/>
<path d="M407.56 283.06L408.79 284.62"
fill="none" stroke="red" stroke-width="0.5"/>
<path d="M408.79 284.62L409.7 286.39"
fill="none" stroke="red" stroke-width="0.5"/>
<path d="M409.7 286.39L410.26 288.3"
fill="none" stroke="red" stroke-width="0.5"/>
<path d="M410.26 288.3L410.45 290.27"
fill="none" stroke="red" stroke-width="0.5"/>
</svg>
