<?xml version="1.0" encoding="UTF-8"?>
<svg xmlns="http://www.w3.org/2000/svg" width="800.000" height="600.000" viewBox="0.0 0.0 800.000 600.000" version="1.1">
  <desc>Produce by Acme CAD Converter</desc>
<path d="M515.7 406.52L612.12 406.52"
fill="none" stroke="black" stroke-width="0.5"/>
<path d="M612.12 406.52L612.12 369.79Z"
fill="none" stroke="black" stroke-width="0.5"/>
<path d="M612.12 369.79L726.91 369.79"
fill="none" stroke="black" stroke-width="0.5"/>
<path d="M726.91 369.79L726.91 406.52Z"
fill="none" stroke="black" stroke-width="0.5"/>
<path d="M726.91 406.52L745.27 406.52"
fill="none" stroke="black" stroke-width="0.5"/>
<path d="M745.27 406.52L745.27 377.14Z"
fill="none" stroke="black" stroke-width="0.5"/>
<path d="M745.27 377.14L763.64 377.14"
fill="none" stroke="black" stroke-width="0.5"/>
<path d="M763.64 377.14L763.64 322.04Z"
fill="none" stroke="black" stroke-width="0.5"/>
<path d="M763.64 322.04L745.27 322.04"
fill="none" stroke="black" stroke-width="0.5"/>
<path d="M745.27 322.04L745.27 248.58Z"
fill="none" stroke="black" stroke-width="0.5"/>
<path d="M745.27 248.58L763.64 248.58"
fill="none" stroke="black" stroke-width="0.5"/>
<path d="M763.64 248.58L763.64 193.48Z"
fill="none" stroke="black" stroke-width="0.5"/>
<path d="M763.64 193.48L726.91 193.48"
fill="none" stroke="black" stroke-width="0.5"/>
<path d="M726.91 193.48L726.91 211.84Z"
fill="none" stroke="black" stroke-width="0.5"/>
<path d="M726.91 211.84L612.12 211.84"
fill="none" stroke="black" stroke-width="0.5"/>
<path d="M612.12 211.84L612.12 193.48Z"
fill="none" stroke="black" stroke-width="0.5"/>
<path d="M612.12 193.48L515.7 193.48"
fill="none" stroke="black" stroke-width="0.5"/>
<path d="M515.7 193.48L515.7 211.84Z"
fill="none" stroke="black" stroke-width="0.5"/>
<path d="M515.7 211.84L284.3 211.84"
fill="none" stroke="black" stroke-width="0.5"/>
<path d="M284.3 211.84L284.3 193.48Z"
fill="none" stroke="black" stroke-width="0.5"/>
<path d="M284.3 193.48L187.88 193.48"
fill="none" stroke="black" stroke-width="0.5"/>
<path d="M187.88 193.48L187.88 211.84Z"
fill="none" stroke="black" stroke-width="0.5"/>
<path d="M187.88 211.84L73.09 211.84"
fill="none" stroke="black" stroke-width="0.5"/>
<path d="M73.09 211.84L73.09 193.48Z"
fill="none" stroke="black" stroke-width="0.5"/>
<path d="M73.09 193.48L36.36 193.48"
fill="none" stroke="black" stroke-width="0.5"/>
<path d="M36.36 193.48L36.36 248.58Z"
fill="none" stroke="black" stroke-width="0.5"/>
<path d="M36.36 248.58L54.73 248.58"
fill="none" stroke="black" stroke-width="0.5"/>
<path d="M54.73 248.58L54.73 322.04Z"
fill="none" stroke="black" stroke-width="0.5"/>
<path d="M54.73 322.04L36.36 322.04"
fill="none" stroke="black" stroke-width="0.5"/>
<path d="M36.36 322.04L36.36 377.14Z"
fill="none" stroke="black" stroke-width="0.5"/>
<path d="M36.36 377.14L54.73 377.14"
fill="none" stroke="black" stroke-width="0.5"/>
<path d="M54.73 377.14L54.73 406.52Z"
fill="none" stroke="black" stroke-width="0.5"/>
<path d="M54.73 406.52L73.09 406.52"
fill="none" stroke="black" stroke-width="0.5"/>
<path d="M73.09 406.52L73.09 369.79Z"
fill="none" stroke="black" stroke-width="0.5"/>
<path d="M73.09 369.79L187.88 369.79"
fill="none" stroke="black" stroke-width="0.5"/>
<path d="M187.88 369.79L187.88 406.52Z"
fill="none" stroke="black" stroke-width="0.5"/>
<path d="M187.88 406.52L284.3 406.52"
fill="none" stroke="black" stroke-width="0.5"/>
<path d="M284.3 406.52L284.3 369.79Z"
fill="none" stroke="black" stroke-width="0.5"/>
<path d="M284.3 369.79L515.7 369.79"
fill="none" stroke="black" stroke-width="0.5"/>
<path d="M515.7 369.79L515.7 406.52Z"
fill="none" stroke="black" stroke-width="0.5"/>
<path d="M407.35 285.31L407.15 287"
fill="none" stroke="black" stroke-width="0.5"/>
<path d="M407.15 287L406.56 288.6"
fill="none" stroke="black" stroke-width="0.5"/>
<path d="M406.56 288.6L405.63 290.03"
fill="none" stroke="black" stroke-width="0.5"/>
<path d="M405.63 290.03L404.39 291.2"
fill="none" stroke="black" stroke-width="0.5"/>
<path d="M404.39 291.2L402.91 292.05"
fill="none" stroke="black" stroke-width="0.5"/>
<path d="M402.91 292.05L401.28 292.54"
fill="none" stroke="black" stroke-width="0.5"/>
<path d="M401.28 292.54L399.57 292.64"
fill="none" stroke="black" stroke-width="0.5"/>
<path d="M399.57 292.64L397.89 292.34"
fill="none" stroke="black" stroke-width="0.5"/>
<path d="M397.89 292.34L396.33 291.67"
fill="none" stroke="black" stroke-width="0.5"/>
<path d="M396.33 291.67L394.96 290.65"
fill="none" stroke="black" stroke-width="0.5"/>
<path d="M394.96 290.65L393.86 289.34"
fill="none" stroke="black" stroke-width="0.5"/>
<path d="M393.86 289.34L393.1 287.82"
fill="none" stroke="black" stroke-width="0.5"/>
<path d="M393.1 287.82L392.7 286.16"
fill="none" stroke="black" stroke-width="0.5"/>
<path d="M392.7 286.16L392.7 284.45Z"
fill="none" stroke="black" stroke-width="0.5"/>
<path d="M392.7 284.45L393.1 282.79"
fill="none" stroke="black" stroke-width="0.5"/>
<path d="M393.1 282.79L393.86 281.27"
fill="none" stroke="black" stroke-width="0.5"/>
<path d="M393.86 281.27L394.96 279.96"
fill="none" stroke="black" stroke-width="0.5"/>
<path d="M394.96 279.96L396.33 278.94"
fill="none" stroke="black" stroke-width="0.5"/>
<path d="M396.33 278.94L397.89 278.27"
fill="none" stroke="black" stroke-width="0.5"/>
<path d="M397.89 278.27L399.57 277.97"
fill="none" stroke="black" stroke-width="0.5"/>
<path d="M399.57 277.97L401.28 278.07"
fill="none" stroke="black" stroke-width="0.5"/>
<path d="M401.28 278.07L402.91 278.56"
fill="none" stroke="black" stroke-width="0.5"/>
<path d="M402.91 278.56L404.39 279.41"
fill="none" stroke="black" stroke-width="0.5"/>
<path d="M404.39 279.41L405.63 280.58"
fill="none" stroke="black" stroke-width="0.5"/>
<path d="M405.63 280.58L406.56 282.01"
fill="none" stroke="black" stroke-width="0.5"/>
<path d="M406.56 282.01L407.15 283.61"
fill="none" stroke="black" stroke-width="0.5"/>
<path d="M407.15 283.61L407.35 285.31"
fill="none" stroke="black" stroke-width="0.5"/>
</svg>
