<?xml version="1.0" encoding="UTF-8"?>
<svg xmlns="http://www.w3.org/2000/svg" width="800.000" height="600.000" viewBox="0.0 0.0 800.000 600.000" version="1.1">
  <desc>Produce by Acme CAD Converter</desc>
<path d="M127.27 27.27L672.73 27.27"
fill="none" stroke="red" stroke-width="0.5"/>
<path d="M672.73 27.27L672.73 572.73Z"
fill="none" stroke="red" stroke-width="0.5"/>
<path d="M672.73 572.73L127.27 572.73"
fill="none" stroke="red" stroke-width="0.5"/>
<path d="M127.27 572.73L127.27 27.27Z"
fill="none" stroke="red" stroke-width="0.5"/>
<path d="M446.42 300L446.22 304.28"
fill="none" stroke="red" stroke-width="0.5"/>
<path d="M446.22 304.28L445.63 308.53"
fill="none" stroke="red" stroke-width="0.5"/>
<path d="M445.63 308.53L444.65 312.7"
fill="none" stroke="red" stroke-width="0.5"/>
<path d="M444.65 312.7L443.29 316.77"
fill="none" stroke="red" stroke-width="0.5"/>
<path d="M443.29 316.77L441.55 320.69"
fill="none" stroke="red" stroke-width="0.5"/>
<path d="M441.55 320.69L439.47 324.44"
fill="none" stroke="red" stroke-width="0.5"/>
<path d="M439.47 324.44L437.05 327.98"
fill="none" stroke="red" stroke-width="0.5"/>
<path d="M437.05 327.98L434.31 331.27"
fill="none" stroke="red" stroke-width="0.5"/>
<path d="M434.31 331.27L431.27 334.31"
fill="none" stroke="red" stroke-width="0.5"/>
<path d="M431.27 334.31L427.98 337.05"
fill="none" stroke="red" stroke-width="0.5"/>
<path d="M427.98 337.05L424.44 339.47"
fill="none" stroke="red" stroke-width="0.5"/>
<path d="M424.44 339.47L420.69 341.55"
fill="none" stroke="red" stroke-width="0.5"/>
<path d="M420.69 341.55L416.77 343.29"
fill="none" stroke="red" stroke-width="0.5"/>
<path d="M416.77 343.29L412.7 344.65"
fill="none" stroke="red" stroke-width="0.5"/>
<path d="M412.7 344.65L408.53 345.63"
fill="none" stroke="red" stroke-width="0.5"/>
<path d="M408.53 345.63L404.28 346.22"
fill="none" stroke="red" stroke-width="0.5"/>
<path d="M404.28 346.22L400 346.42"
fill="none" stroke="red" stroke-width="0.5"/>
<path d="M400 346.42L395.72 346.22"
fill="none" stroke="red" stroke-width="0.5"/>
<path d="M395.72 346.22L391.47 345.63"
fill="none" stroke="red" stroke-width="0.5"/>
<path d="M391.47 345.63L387.3 344.65"
fill="none" stroke="red" stroke-width="0.5"/>
<path d="M387.3 344.65L383.23 343.29"
fill="none" stroke="red" stroke-width="0.5"/>
<path d="M383.23 343.29L379.31 341.55"
fill="none" stroke="red" stroke-width="0.5"/>
<path d="M379.31 341.55L375.56 339.47"
fill="none" stroke="red" stroke-width="0.5"/>
<path d="M375.56 339.47L372.02 337.05"
fill="none" stroke="red" stroke-width="0.5"/>
<path d="M372.02 337.05L368.73 334.31"
fill="none" stroke="red" stroke-width="0.5"/>
<path d="M368.73 334.31L365.69 331.27"
fill="none" stroke="red" stroke-width="0.5"/>
<path d="M365.69 331.27L362.95 327.98"
fill="none" stroke="red" stroke-width="0.5"/>
<path d="M362.95 327.98L360.53 324.44"
fill="none" stroke="red" stroke-width="0.5"/>
<path d="M360.53 324.44L358.45 320.69"
fill="none" stroke="red" stroke-width="0.5"/>
<path d="M358.45 320.69L356.71 316.77"
fill="none" stroke="red" stroke-width="0.5"/>
<path d="M356.71 316.77L355.35 312.7"
fill="none" stroke="red" stroke-width="0.5"/>
<path d="M355.35 312.7L354.37 308.53"
fill="none" stroke="red" stroke-width="0.5"/>
<path d="M354.37 308.53L353.78 304.28"
fill="none" stroke="red" stroke-width="0.5"/>
<path d="M353.78 304.28L353.58 300"
fill="none" stroke="red" stroke-width="0.5"/>
<path d="M353.58 300L353.78 295.72"
fill="none" stroke="red" stroke-width="0.5"/>
<path d="M353.78 295.72L354.37 291.47"
fill="none" stroke="red" stroke-width="0.5"/>
<path d="M354.37 291.47L355.35 287.3"
fill="none" stroke="red" stroke-width="0.5"/>
<path d="M355.35 287.3L356.71 283.23"
fill="none" stroke="red" stroke-width="0.5"/>
<path d="M356.71 283.23L358.45 279.31"
fill="none" stroke="red" stroke-width="0.5"/>
<path d="M358.45 279.31L360.53 275.56"
fill="none" stroke="red" stroke-width="0.5"/>
<path d="M360.53 275.56L362.95 272.02"
fill="none" stroke="red" stroke-width="0.5"/>
<path d="M362.95 272.02L365.69 268.73"
fill="none" stroke="red" stroke-width="0.5"/>
<path d="M365.69 268.73L368.73 265.69"
fill="none" stroke="red" stroke-width="0.5"/>
<path d="M368.73 265.69L372.02 262.95"
fill="none" stroke="red" stroke-width="0.5"/>
<path d="M372.02 262.95L375.56 260.53"
fill="none" stroke="red" stroke-width="0.5"/>
<path d="M375.56 260.53L379.31 258.45"
fill="none" stroke="red" stroke-width="0.5"/>
<path d="M379.31 258.45L383.23 256.71"
fill="none" stroke="red" stroke-width="0.5"/>
<path d="M383.23 256.71L387.3 255.35"
fill="none" stroke="red" stroke-width="0.5"/>
<path d="M387.3 255.35L391.47 254.37"
fill="none" stroke="red" stroke-width="0.5"/>
<path d="M391.47 254.37L395.72 253.78"
fill="none" stroke="red" stroke-width="0.5"/>
<path d="M395.72 253.78L400 253.58"
fill="none" stroke="red" stroke-width="0.5"/>
<path d="M400 253.58L404.28 253.78"
fill="none" stroke="red" stroke-width="0.5"/>
<path d="M404.28 253.78L408.53 254.37"
fill="none" stroke="red" stroke-width="0.5"/>
<path d="M408.53 254.37L412.7 255.35"
fill="none" stroke="red" stroke-width="0.5"/>
<path d="M412.7 255.35L416.77 256.71"
fill="none" stroke="red" stroke-width="0.5"/>
<path d="M416.77 256.71L420.69 258.45"
fill="none" stroke="red" stroke-width="0.5"/>
<path d="M420.69 258.45L424.44 260.53"
fill="none" stroke="red" stroke-width="0.5"/>
<path d="M424.44 260.53L427.98 262.95"
fill="none" stroke="red" stroke-width="0.5"/>
<path d="M427.98 262.95L431.27 265.69"
fill="none" stroke="red" stroke-width="0.5"/>
<path d="M431.27 265.69L434.31 268.73"
fill="none" stroke="red" stroke-width="0.5"/>
<path d="M434.31 268.73L437.05 272.02"
fill="none" stroke="red" stroke-width="0.5"/>
<path d="M437.05 272.02L439.47 275.56"
fill="none" stroke="red" stroke-width="0.5"/>
<path d="M439.47 275.56L441.55 279.31"
fill="none" stroke="red" stroke-width="0.5"/>
<path d="M441.55 279.31L443.29 283.23"
fill="none" stroke="red" stroke-width="0.5"/>
<path d="M443.29 283.23L444.65 287.3"
fill="none" stroke="red" stroke-width="0.5"/>
<path d="M444.65 287.3L445.63 291.47"
fill="none" stroke="red" stroke-width="0.5"/>
<path d="M445.63 291.47L446.22 295.72"
fill="none" stroke="red" stroke-width="0.5"/>
<path d="M446.22 295.72L446.42 300"
fill="none" stroke="red" stroke-width="0.5"/>
</svg>
