<?xml version="1.0" encoding="UTF-8"?>
<svg xmlns="http://www.w3.org/2000/svg" width="800.000" height="600.000" viewBox="0.0 0.0 800.000 600.000" version="1.1">
  <desc>Produce by Acme CAD Converter</desc>
<path d="M37.81 415.65L762.19 415.65"
fill="none" stroke="red" stroke-width="0.5"/>
<path d="M762.19 415.65L762.19 192.76Z"
fill="none" stroke="red" stroke-width="0.5"/>
<path d="M762.19 192.76L762.19 192.76Z"
fill="none" stroke="red" stroke-width="0.5"/>
<path d="M762.19 192.76L762.02 191.21"
fill="none" stroke="red" stroke-width="0.5"/>
<path d="M762.02 191.21L761.5 189.74"
fill="none" stroke="red" stroke-width="0.5"/>
<path d="M761.5 189.74L760.67 188.42"
fill="none" stroke="red" stroke-width="0.5"/>
<path d="M760.67 188.42L759.57 187.31"
fill="none" stroke="red" stroke-width="0.5"/>
<path d="M759.57 187.31L758.25 186.48"
fill="none" stroke="red" stroke-width="0.5"/>
<path d="M758.25 186.48L756.78 185.97"
fill="none" stroke="red" stroke-width="0.5"/>
<path d="M756.78 185.97L755.23 185.79"
fill="none" stroke="red" stroke-width="0.5"/>
<path d="M755.23 185.79L44.77 185.79"
fill="none" stroke="red" stroke-width="0.5"/>
<path d="M44.77 185.79L44.77 185.79Z"
fill="none" stroke="red" stroke-width="0.5"/>
<path d="M44.77 185.79L43.22 185.97"
fill="none" stroke="red" stroke-width="0.5"/>
<path d="M43.22 185.97L41.75 186.48"
fill="none" stroke="red" stroke-width="0.5"/>
<path d="M41.75 186.48L40.43 187.31"
fill="none" stroke="red" stroke-width="0.5"/>
<path d="M40.43 187.31L39.33 188.42"
fill="none" stroke="red" stroke-width="0.5"/>
<path d="M39.33 188.42L38.5 189.74"
fill="none" stroke="red" stroke-width="0.5"/>
<path d="M38.5 189.74L37.98 191.21"
fill="none" stroke="red" stroke-width="0.5"/>
<path d="M37.98 191.21L37.81 192.76"
fill="none" stroke="red" stroke-width="0.5"/>
<path d="M37.81 192.76L37.81 415.65Z"
fill="none" stroke="red" stroke-width="0.5"/>
<path d="M286.39 254.69L516.24 254.69"
fill="none" stroke="red" stroke-width="0.5"/>
<path d="M516.24 254.69L516.24 254.69Z"
fill="none" stroke="red" stroke-width="0.5"/>
<path d="M516.24 254.69L517.79 254.51"
fill="none" stroke="red" stroke-width="0.5"/>
<path d="M517.79 254.51L519.27 254"
fill="none" stroke="red" stroke-width="0.5"/>
<path d="M519.27 254L520.59 253.17"
fill="none" stroke="red" stroke-width="0.5"/>
<path d="M520.59 253.17L521.69 252.07"
fill="none" stroke="red" stroke-width="0.5"/>
<path d="M521.69 252.07L522.52 250.74"
fill="none" stroke="red" stroke-width="0.5"/>
<path d="M522.52 250.74L523.03 249.27"
fill="none" stroke="red" stroke-width="0.5"/>
<path d="M523.03 249.27L523.21 247.72"
fill="none" stroke="red" stroke-width="0.5"/>
<path d="M523.21 247.72L279.42 247.72"
fill="none" stroke="red" stroke-width="0.5"/>
<path d="M279.42 247.72L279.42 247.72Z"
fill="none" stroke="red" stroke-width="0.5"/>
<path d="M279.42 247.72L279.6 249.27"
fill="none" stroke="red" stroke-width="0.5"/>
<path d="M279.6 249.27L280.11 250.74"
fill="none" stroke="red" stroke-width="0.5"/>
<path d="M280.11 250.74L280.94 252.07"
fill="none" stroke="red" stroke-width="0.5"/>
<path d="M280.94 252.07L282.05 253.17"
fill="none" stroke="red" stroke-width="0.5"/>
<path d="M282.05 253.17L283.37 254"
fill="none" stroke="red" stroke-width="0.5"/>
<path d="M283.37 254L284.84 254.51"
fill="none" stroke="red" stroke-width="0.5"/>
<path d="M284.84 254.51L286.39 254.69"
fill="none" stroke="red" stroke-width="0.5"/>
<path d="M286.39 237.27L516.24 237.27"
fill="none" stroke="red" stroke-width="0.5"/>
<path d="M516.24 237.27L516.24 237.27Z"
fill="none" stroke="red" stroke-width="0.5"/>
<path d="M516.24 237.27L517.79 237.45"
fill="none" stroke="red" stroke-width="0.5"/>
<path d="M517.79 237.45L519.27 237.96"
fill="none" stroke="red" stroke-width="0.5"/>
<path d="M519.27 237.96L520.59 238.79"
fill="none" stroke="red" stroke-width="0.5"/>
<path d="M520.59 238.79L521.69 239.9"
fill="none" stroke="red" stroke-width="0.5"/>
<path d="M521.69 239.9L522.52 241.22"
fill="none" stroke="red" stroke-width="0.5"/>
<path d="M522.52 241.22L523.03 242.69"
fill="none" stroke="red" stroke-width="0.5"/>
<path d="M523.03 242.69L523.21 244.24"
fill="none" stroke="red" stroke-width="0.5"/>
<path d="M523.21 244.24L279.42 244.24"
fill="none" stroke="red" stroke-width="0.5"/>
<path d="M279.42 244.24L279.42 244.24Z"
fill="none" stroke="red" stroke-width="0.5"/>
<path d="M279.42 244.24L279.6 242.69"
fill="none" stroke="red" stroke-width="0.5"/>
<path d="M279.6 242.69L280.11 241.22"
fill="none" stroke="red" stroke-width="0.5"/>
<path d="M280.11 241.22L280.94 239.9"
fill="none" stroke="red" stroke-width="0.5"/>
<path d="M280.94 239.9L282.05 238.79"
fill="none" stroke="red" stroke-width="0.5"/>
<path d="M282.05 238.79L283.37 237.96"
fill="none" stroke="red" stroke-width="0.5"/>
<path d="M283.37 237.96L284.84 237.45"
fill="none" stroke="red" stroke-width="0.5"/>
<path d="M284.84 237.45L286.39 237.27"
fill="none" stroke="red" stroke-width="0.5"/>
<path d="M603.31 254.69L547.59 254.69"
fill="none" stroke="red" stroke-width="0.5"/>
<path d="M547.59 254.69L547.59 254.69Z"
fill="none" stroke="red" stroke-width="0.5"/>
<path d="M547.59 254.69L546.04 254.51"
fill="none" stroke="red" stroke-width="0.5"/>
<path d="M546.04 254.51L544.56 254"
fill="none" stroke="red" stroke-width="0.5"/>
<path d="M544.56 254L543.24 253.17"
fill="none" stroke="red" stroke-width="0.5"/>
<path d="M543.24 253.17L542.14 252.07"
fill="none" stroke="red" stroke-width="0.5"/>
<path d="M542.14 252.07L541.31 250.74"
fill="none" stroke="red" stroke-width="0.5"/>
<path d="M541.31 250.74L540.8 249.27"
fill="none" stroke="red" stroke-width="0.5"/>
<path d="M540.8 249.27L540.62 247.72"
fill="none" stroke="red" stroke-width="0.5"/>
<path d="M540.62 247.72L610.27 247.72"
fill="none" stroke="red" stroke-width="0.5"/>
<path d="M610.27 247.72L610.27 247.72Z"
fill="none" stroke="red" stroke-width="0.5"/>
<path d="M610.27 247.72L610.1 249.27"
fill="none" stroke="red" stroke-width="0.5"/>
<path d="M610.1 249.27L609.58 250.74"
fill="none" stroke="red" stroke-width="0.5"/>
<path d="M609.58 250.74L608.75 252.07"
fill="none" stroke="red" stroke-width="0.5"/>
<path d="M608.75 252.07L607.65 253.17"
fill="none" stroke="red" stroke-width="0.5"/>
<path d="M607.65 253.17L606.33 254"
fill="none" stroke="red" stroke-width="0.5"/>
<path d="M606.33 254L604.86 254.51"
fill="none" stroke="red" stroke-width="0.5"/>
<path d="M604.86 254.51L603.31 254.69"
fill="none" stroke="red" stroke-width="0.5"/>
<path d="M610.27 244.24L610.1 242.69"
fill="none" stroke="red" stroke-width="0.5"/>
<path d="M610.1 242.69L609.58 241.22"
fill="none" stroke="red" stroke-width="0.5"/>
<path d="M609.58 241.22L608.75 239.9"
fill="none" stroke="red" stroke-width="0.5"/>
<path d="M608.75 239.9L607.65 238.79"
fill="none" stroke="red" stroke-width="0.5"/>
<path d="M607.65 238.79L606.33 237.96"
fill="none" stroke="red" stroke-width="0.5"/>
<path d="M606.33 237.96L604.86 237.45"
fill="none" stroke="red" stroke-width="0.5"/>
<path d="M604.86 237.45L603.31 237.27"
fill="none" stroke="red" stroke-width="0.5"/>
<path d="M603.31 237.27L547.59 237.27"
fill="none" stroke="red" stroke-width="0.5"/>
<path d="M547.59 237.27L547.59 237.27Z"
fill="none" stroke="red" stroke-width="0.5"/>
<path d="M547.59 237.27L546.04 237.45"
fill="none" stroke="red" stroke-width="0.5"/>
<path d="M546.04 237.45L544.56 237.96"
fill="none" stroke="red" stroke-width="0.5"/>
<path d="M544.56 237.96L543.24 238.79"
fill="none" stroke="red" stroke-width="0.5"/>
<path d="M543.24 238.79L542.14 239.9"
fill="none" stroke="red" stroke-width="0.5"/>
<path d="M542.14 239.9L541.31 241.22"
fill="none" stroke="red" stroke-width="0.5"/>
<path d="M541.31 241.22L540.8 242.69"
fill="none" stroke="red" stroke-width="0.5"/>
<path d="M540.8 242.69L540.62 244.24"
fill="none" stroke="red" stroke-width="0.5"/>
<path d="M540.62 244.24L610.27 244.24"
fill="none" stroke="red" stroke-width="0.5"/>
<path d="M192.36 244.24L262.01 244.24"
fill="none" stroke="red" stroke-width="0.5"/>
<path d="M262.01 244.24L262.01 244.24Z"
fill="none" stroke="red" stroke-width="0.5"/>
<path d="M262.01 244.24L261.84 242.69"
fill="none" stroke="red" stroke-width="0.5"/>
<path d="M261.84 242.69L261.32 241.22"
fill="none" stroke="red" stroke-width="0.5"/>
<path d="M261.32 241.22L260.49 239.9"
fill="none" stroke="red" stroke-width="0.5"/>
<path d="M260.49 239.9L259.39 238.79"
fill="none" stroke="red" stroke-width="0.5"/>
<path d="M259.39 238.79L258.07 237.96"
fill="none" stroke="red" stroke-width="0.5"/>
<path d="M258.07 237.96L256.6 237.45"
fill="none" stroke="red" stroke-width="0.5"/>
<path d="M256.6 237.45L255.05 237.27"
fill="none" stroke="red" stroke-width="0.5"/>
<path d="M255.05 237.27L199.32 237.27"
fill="none" stroke="red" stroke-width="0.5"/>
<path d="M199.32 237.27L199.32 237.27Z"
fill="none" stroke="red" stroke-width="0.5"/>
<path d="M199.32 237.27L197.77 237.45"
fill="none" stroke="red" stroke-width="0.5"/>
<path d="M197.77 237.45L196.3 237.96"
fill="none" stroke="red" stroke-width="0.5"/>
<path d="M196.3 237.96L194.98 238.79"
fill="none" stroke="red" stroke-width="0.5"/>
<path d="M194.98 238.79L193.88 239.9"
fill="none" stroke="red" stroke-width="0.5"/>
<path d="M193.88 239.9L193.05 241.22"
fill="none" stroke="red" stroke-width="0.5"/>
<path d="M193.05 241.22L192.53 242.69"
fill="none" stroke="red" stroke-width="0.5"/>
<path d="M192.53 242.69L192.36 244.24"
fill="none" stroke="red" stroke-width="0.5"/>
<path d="M192.36 247.72L192.53 249.27"
fill="none" stroke="red" stroke-width="0.5"/>
<path d="M192.53 249.27L193.05 250.74"
fill="none" stroke="red" stroke-width="0.5"/>
<path d="M193.05 250.74L193.88 252.07"
fill="none" stroke="red" stroke-width="0.5"/>
<path d="M193.88 252.07L194.98 253.17"
fill="none" stroke="red" stroke-width="0.5"/>
<path d="M194.98 253.17L196.3 254"
fill="none" stroke="red" stroke-width="0.5"/>
<path d="M196.3 254L197.77 254.51"
fill="none" stroke="red" stroke-width="0.5"/>
<path d="M197.77 254.51L199.32 254.69"
fill="none" stroke="red" stroke-width="0.5"/>
<path d="M199.32 254.69L255.05 254.69"
fill="none" stroke="red" stroke-width="0.5"/>
<path d="M255.05 254.69L255.05 254.69Z"
fill="none" stroke="red" stroke-width="0.5"/>
<path d="M255.05 254.69L256.6 254.51"
fill="none" stroke="red" stroke-width="0.5"/>
<path d="M256.6 254.51L258.07 254"
fill="none" stroke="red" stroke-width="0.5"/>
<path d="M258.07 254L259.39 253.17"
fill="none" stroke="red" stroke-width="0.5"/>
<path d="M259.39 253.17L260.49 252.07"
fill="none" stroke="red" stroke-width="0.5"/>
<path d="M260.49 252.07L261.32 250.74"
fill="none" stroke="red" stroke-width="0.5"/>
<path d="M261.32 250.74L261.84 249.27"
fill="none" stroke="red" stroke-width="0.5"/>
<path d="M261.84 249.27L262.01 247.72"
fill="none" stroke="red" stroke-width="0.5"/>
<path d="M262.01 247.72L192.36 247.72"
fill="none" stroke="red" stroke-width="0.5"/>
<path d="M728.68 387.79L728.68 335.55Z"
fill="none" stroke="red" stroke-width="0.5"/>
<path d="M728.68 335.55L746.1 335.55"
fill="none" stroke="red" stroke-width="0.5"/>
<path d="M746.1 335.55L746.1 387.79Z"
fill="none" stroke="red" stroke-width="0.5"/>
<path d="M746.1 387.79L728.68 387.79"
fill="none" stroke="red" stroke-width="0.5"/>
<path d="M728.68 265.9L728.68 213.66Z"
fill="none" stroke="red" stroke-width="0.5"/>
<path d="M728.68 213.66L746.1 213.66"
fill="none" stroke="red" stroke-width="0.5"/>
<path d="M746.1 213.66L746.1 265.9Z"
fill="none" stroke="red" stroke-width="0.5"/>
<path d="M746.1 265.9L728.68 265.9"
fill="none" stroke="red" stroke-width="0.5"/>
<path d="M706.05 231.07L601.57 231.07"
fill="none" stroke="red" stroke-width="0.5"/>
<path d="M601.57 231.07L601.57 213.66Z"
fill="none" stroke="red" stroke-width="0.5"/>
<path d="M601.57 213.66L706.05 213.66"
fill="none" stroke="red" stroke-width="0.5"/>
<path d="M706.05 213.66L706.05 231.07Z"
fill="none" stroke="red" stroke-width="0.5"/>
<path d="M497.09 231.07L305.54 231.07"
fill="none" stroke="red" stroke-width="0.5"/>
<path d="M305.54 231.07L305.54 213.66Z"
fill="none" stroke="red" stroke-width="0.5"/>
<path d="M305.54 213.66L497.09 213.66"
fill="none" stroke="red" stroke-width="0.5"/>
<path d="M497.09 213.66L497.09 231.07Z"
fill="none" stroke="red" stroke-width="0.5"/>
<path d="M201.07 231.07L96.59 231.07"
fill="none" stroke="red" stroke-width="0.5"/>
<path d="M96.59 231.07L96.59 213.66Z"
fill="none" stroke="red" stroke-width="0.5"/>
<path d="M96.59 213.66L201.07 213.66"
fill="none" stroke="red" stroke-width="0.5"/>
<path d="M201.07 213.66L201.07 231.07Z"
fill="none" stroke="red" stroke-width="0.5"/>
<path d="M56.54 265.9L56.54 213.66Z"
fill="none" stroke="red" stroke-width="0.5"/>
<path d="M56.54 213.66L73.95 213.66"
fill="none" stroke="red" stroke-width="0.5"/>
<path d="M73.95 213.66L73.95 265.9Z"
fill="none" stroke="red" stroke-width="0.5"/>
<path d="M73.95 265.9L56.54 265.9"
fill="none" stroke="red" stroke-width="0.5"/>
<path d="M56.54 387.79L56.54 335.55Z"
fill="none" stroke="red" stroke-width="0.5"/>
<path d="M56.54 335.55L73.95 335.55"
fill="none" stroke="red" stroke-width="0.5"/>
<path d="M73.95 335.55L73.95 387.79Z"
fill="none" stroke="red" stroke-width="0.5"/>
<path d="M73.95 387.79L56.54 387.79"
fill="none" stroke="red" stroke-width="0.5"/>
<path d="M303.8 311.17L303.61 312.78"
fill="none" stroke="red" stroke-width="0.5"/>
<path d="M303.61 312.78L303.06 314.3"
fill="none" stroke="red" stroke-width="0.5"/>
<path d="M303.06 314.3L302.17 315.65"
fill="none" stroke="red" stroke-width="0.5"/>
<path d="M302.17 315.65L301 316.76"
fill="none" stroke="red" stroke-width="0.5"/>
<path d="M301 316.76L299.6 317.56"
fill="none" stroke="red" stroke-width="0.5"/>
<path d="M299.6 317.56L298.05 318.03"
fill="none" stroke="red" stroke-width="0.5"/>
<path d="M298.05 318.03L296.43 318.12"
fill="none" stroke="red" stroke-width="0.5"/>
<path d="M296.43 318.12L294.84 317.84"
fill="none" stroke="red" stroke-width="0.5"/>
<path d="M294.84 317.84L293.35 317.2"
fill="none" stroke="red" stroke-width="0.5"/>
<path d="M293.35 317.2L292.06 316.24"
fill="none" stroke="red" stroke-width="0.5"/>
<path d="M292.06 316.24L291.02 315"
fill="none" stroke="red" stroke-width="0.5"/>
<path d="M291.02 315L290.29 313.55"
fill="none" stroke="red" stroke-width="0.5"/>
<path d="M290.29 313.55L289.92 311.98"
fill="none" stroke="red" stroke-width="0.5"/>
<path d="M289.92 311.98L289.92 310.36Z"
fill="none" stroke="red" stroke-width="0.5"/>
<path d="M289.92 310.36L290.29 308.79"
fill="none" stroke="red" stroke-width="0.5"/>
<path d="M290.29 308.79L291.02 307.34"
fill="none" stroke="red" stroke-width="0.5"/>
<path d="M291.02 307.34L292.06 306.1"
fill="none" stroke="red" stroke-width="0.5"/>
<path d="M292.06 306.1L293.35 305.14"
fill="none" stroke="red" stroke-width="0.5"/>
<path d="M293.35 305.14L294.84 304.5"
fill="none" stroke="red" stroke-width="0.5"/>
<path d="M294.84 304.5L296.43 304.22"
fill="none" stroke="red" stroke-width="0.5"/>
<path d="M296.43 304.22L298.05 304.31"
fill="none" stroke="red" stroke-width="0.5"/>
<path d="M298.05 304.31L299.6 304.77"
fill="none" stroke="red" stroke-width="0.5"/>
<path d="M299.6 304.77L301 305.58"
fill="none" stroke="red" stroke-width="0.5"/>
<path d="M301 305.58L302.17 306.69"
fill="none" stroke="red" stroke-width="0.5"/>
<path d="M302.17 306.69L303.06 308.04"
fill="none" stroke="red" stroke-width="0.5"/>
<path d="M303.06 308.04L303.61 309.56"
fill="none" stroke="red" stroke-width="0.5"/>
<path d="M303.61 309.56L303.8 311.17"
fill="none" stroke="red" stroke-width="0.5"/>
<path d="M512.76 311.17L512.57 312.78"
fill="none" stroke="red" stroke-width="0.5"/>
<path d="M512.57 312.78L512.02 314.3"
fill="none" stroke="red" stroke-width="0.5"/>
<path d="M512.02 314.3L511.13 315.65"
fill="none" stroke="red" stroke-width="0.5"/>
<path d="M511.13 315.65L509.95 316.76"
fill="none" stroke="red" stroke-width="0.5"/>
<path d="M509.95 316.76L508.55 317.56"
fill="none" stroke="red" stroke-width="0.5"/>
<path d="M508.55 317.56L507 318.03"
fill="none" stroke="red" stroke-width="0.5"/>
<path d="M507 318.03L505.39 318.12"
fill="none" stroke="red" stroke-width="0.5"/>
<path d="M505.39 318.12L503.8 317.84"
fill="none" stroke="red" stroke-width="0.5"/>
<path d="M503.8 317.84L502.31 317.2"
fill="none" stroke="red" stroke-width="0.5"/>
<path d="M502.31 317.2L501.02 316.24"
fill="none" stroke="red" stroke-width="0.5"/>
<path d="M501.02 316.24L499.98 315"
fill="none" stroke="red" stroke-width="0.5"/>
<path d="M499.98 315L499.25 313.55"
fill="none" stroke="red" stroke-width="0.5"/>
<path d="M499.25 313.55L498.88 311.98"
fill="none" stroke="red" stroke-width="0.5"/>
<path d="M498.88 311.98L498.88 310.36Z"
fill="none" stroke="red" stroke-width="0.5"/>
<path d="M498.88 310.36L499.25 308.79"
fill="none" stroke="red" stroke-width="0.5"/>
<path d="M499.25 308.79L499.98 307.34"
fill="none" stroke="red" stroke-width="0.5"/>
<path d="M499.98 307.34L501.02 306.1"
fill="none" stroke="red" stroke-width="0.5"/>
<path d="M501.02 306.1L502.31 305.14"
fill="none" stroke="red" stroke-width="0.5"/>
<path d="M502.31 305.14L503.8 304.5"
fill="none" stroke="red" stroke-width="0.5"/>
<path d="M503.8 304.5L505.39 304.22"
fill="none" stroke="red" stroke-width="0.5"/>
<path d="M505.39 304.22L507 304.31"
fill="none" stroke="red" stroke-width="0.5"/>
<path d="M507 304.31L508.55 304.77"
fill="none" stroke="red" stroke-width="0.5"/>
<path d="M508.55 304.77L509.95 305.58"
fill="none" stroke="red" stroke-width="0.5"/>
<path d="M509.95 305.58L511.13 306.69"
fill="none" stroke="red" stroke-width="0.5"/>
<path d="M511.13 306.69L512.02 308.04"
fill="none" stroke="red" stroke-width="0.5"/>
<path d="M512.02 308.04L512.57 309.56"
fill="none" stroke="red" stroke-width="0.5"/>
<path d="M512.57 309.56L512.76 311.17"
fill="none" stroke="red" stroke-width="0.5"/>
</svg>
