<?xml version="1.0" encoding="UTF-8"?>
<svg xmlns="http://www.w3.org/2000/svg" width="800.000" height="600.000" viewBox="0.0 0.0 800.000 600.000" version="1.1">
  <desc>Produce by Acme CAD Converter</desc>
<path d="M577.96 324.21L577.78 326.51"
fill="none" stroke="red" stroke-width="0.5"/>
<path d="M577.78 326.51L577.24 328.75"
fill="none" stroke="red" stroke-width="0.5"/>
<path d="M577.24 328.75L576.36 330.88"
fill="none" stroke="red" stroke-width="0.5"/>
<path d="M576.36 330.88L575.16 332.85"
fill="none" stroke="red" stroke-width="0.5"/>
<path d="M575.16 332.85L573.66 334.6"
fill="none" stroke="red" stroke-width="0.5"/>
<path d="M573.66 334.6L571.91 336.1"
fill="none" stroke="red" stroke-width="0.5"/>
<path d="M571.91 336.1L569.94 337.3"
fill="none" stroke="red" stroke-width="0.5"/>
<path d="M569.94 337.3L567.81 338.18"
fill="none" stroke="red" stroke-width="0.5"/>
<path d="M567.81 338.18L565.57 338.72"
fill="none" stroke="red" stroke-width="0.5"/>
<path d="M565.57 338.72L563.27 338.9"
fill="none" stroke="red" stroke-width="0.5"/>
<path d="M563.27 338.9L236.37 338.9"
fill="none" stroke="red" stroke-width="0.5"/>
<path d="M236.37 338.9L236.37 338.9Z"
fill="none" stroke="red" stroke-width="0.5"/>
<path d="M236.37 338.9L234.07 338.72"
fill="none" stroke="red" stroke-width="0.5"/>
<path d="M234.07 338.72L231.82 338.18"
fill="none" stroke="red" stroke-width="0.5"/>
<path d="M231.82 338.18L229.69 337.3"
fill="none" stroke="red" stroke-width="0.5"/>
<path d="M229.69 337.3L227.73 336.1"
fill="none" stroke="red" stroke-width="0.5"/>
<path d="M227.73 336.1L225.98 334.6"
fill="none" stroke="red" stroke-width="0.5"/>
<path d="M225.98 334.6L224.48 332.85"
fill="none" stroke="red" stroke-width="0.5"/>
<path d="M224.48 332.85L223.27 330.88"
fill="none" stroke="red" stroke-width="0.5"/>
<path d="M223.27 330.88L222.39 328.75"
fill="none" stroke="red" stroke-width="0.5"/>
<path d="M222.39 328.75L221.85 326.51"
fill="none" stroke="red" stroke-width="0.5"/>
<path d="M221.85 326.51L221.67 324.21"
fill="none" stroke="red" stroke-width="0.5"/>
<path d="M221.67 324.21L221.67 272.79Z"
fill="none" stroke="red" stroke-width="0.5"/>
<path d="M221.67 272.79L221.67 272.79Z"
fill="none" stroke="red" stroke-width="0.5"/>
<path d="M221.67 272.79L221.85 270.49"
fill="none" stroke="red" stroke-width="0.5"/>
<path d="M221.85 270.49L222.39 268.25"
fill="none" stroke="red" stroke-width="0.5"/>
<path d="M222.39 268.25L223.27 266.12"
fill="none" stroke="red" stroke-width="0.5"/>
<path d="M223.27 266.12L224.48 264.15"
fill="none" stroke="red" stroke-width="0.5"/>
<path d="M224.48 264.15L225.98 262.4"
fill="none" stroke="red" stroke-width="0.5"/>
<path d="M225.98 262.4L227.73 260.9"
fill="none" stroke="red" stroke-width="0.5"/>
<path d="M227.73 260.9L229.69 259.7"
fill="none" stroke="red" stroke-width="0.5"/>
<path d="M229.69 259.7L231.82 258.81"
fill="none" stroke="red" stroke-width="0.5"/>
<path d="M231.82 258.81L234.07 258.28"
fill="none" stroke="red" stroke-width="0.5"/>
<path d="M234.07 258.28L236.37 258.09"
fill="none" stroke="red" stroke-width="0.5"/>
<path d="M236.37 258.09L563.27 258.09"
fill="none" stroke="red" stroke-width="0.5"/>
<path d="M563.27 258.09L563.27 258.09Z"
fill="none" stroke="red" stroke-width="0.5"/>
<path d="M563.27 258.09L565.57 258.28"
fill="none" stroke="red" stroke-width="0.5"/>
<path d="M565.57 258.28L567.81 258.81"
fill="none" stroke="red" stroke-width="0.5"/>
<path d="M567.81 258.81L569.94 259.7"
fill="none" stroke="red" stroke-width="0.5"/>
<path d="M569.94 259.7L571.91 260.9"
fill="none" stroke="red" stroke-width="0.5"/>
<path d="M571.91 260.9L573.66 262.4"
fill="none" stroke="red" stroke-width="0.5"/>
<path d="M573.66 262.4L575.16 264.15"
fill="none" stroke="red" stroke-width="0.5"/>
<path d="M575.16 264.15L576.36 266.12"
fill="none" stroke="red" stroke-width="0.5"/>
<path d="M576.36 266.12L577.24 268.25"
fill="none" stroke="red" stroke-width="0.5"/>
<path d="M577.24 268.25L577.78 270.49"
fill="none" stroke="red" stroke-width="0.5"/>
<path d="M577.78 270.49L577.96 272.79"
fill="none" stroke="red" stroke-width="0.5"/>
<path d="M577.96 272.79L577.96 324.21Z"
fill="none" stroke="red" stroke-width="0.5"/>
<path d="M36.36 421.21L763.64 421.21"
fill="none" stroke="red" stroke-width="0.5"/>
<path d="M763.64 421.21L763.64 391.83Z"
fill="none" stroke="red" stroke-width="0.5"/>
<path d="M763.64 391.83L745.27 391.83"
fill="none" stroke="red" stroke-width="0.5"/>
<path d="M745.27 391.83L745.27 336.74Z"
fill="none" stroke="red" stroke-width="0.5"/>
<path d="M745.27 336.74L763.64 336.74"
fill="none" stroke="red" stroke-width="0.5"/>
<path d="M763.64 336.74L763.64 263.27Z"
fill="none" stroke="red" stroke-width="0.5"/>
<path d="M763.64 263.27L745.27 263.27"
fill="none" stroke="red" stroke-width="0.5"/>
<path d="M745.27 263.27L745.27 208.17Z"
fill="none" stroke="red" stroke-width="0.5"/>
<path d="M745.27 208.17L763.64 208.17"
fill="none" stroke="red" stroke-width="0.5"/>
<path d="M763.64 208.17L763.64 178.79Z"
fill="none" stroke="red" stroke-width="0.5"/>
<path d="M763.64 178.79L36.36 178.79"
fill="none" stroke="red" stroke-width="0.5"/>
<path d="M36.36 178.79L36.36 208.17Z"
fill="none" stroke="red" stroke-width="0.5"/>
<path d="M36.36 208.17L54.73 208.17"
fill="none" stroke="red" stroke-width="0.5"/>
<path d="M54.73 208.17L54.73 263.27Z"
fill="none" stroke="red" stroke-width="0.5"/>
<path d="M54.73 263.27L36.36 263.27"
fill="none" stroke="red" stroke-width="0.5"/>
<path d="M36.36 263.27L36.36 336.74Z"
fill="none" stroke="red" stroke-width="0.5"/>
<path d="M36.36 336.74L54.73 336.74"
fill="none" stroke="red" stroke-width="0.5"/>
<path d="M54.73 336.74L54.73 391.83Z"
fill="none" stroke="red" stroke-width="0.5"/>
<path d="M54.73 391.83L36.36 391.83"
fill="none" stroke="red" stroke-width="0.5"/>
<path d="M36.36 391.83L36.36 421.21Z"
fill="none" stroke="red" stroke-width="0.5"/>
<path d="M611.2 208.17L721.4 208.17"
fill="none" stroke="red" stroke-width="0.5"/>
<path d="M721.4 208.17L721.4 226.54Z"
fill="none" stroke="red" stroke-width="0.5"/>
<path d="M721.4 226.54L611.2 226.54"
fill="none" stroke="red" stroke-width="0.5"/>
<path d="M611.2 226.54L611.2 208.17Z"
fill="none" stroke="red" stroke-width="0.5"/>
<path d="M298.99 208.17L501.01 208.17"
fill="none" stroke="red" stroke-width="0.5"/>
<path d="M501.01 208.17L501.01 226.54Z"
fill="none" stroke="red" stroke-width="0.5"/>
<path d="M501.01 226.54L298.99 226.54"
fill="none" stroke="red" stroke-width="0.5"/>
<path d="M298.99 226.54L298.99 208.17Z"
fill="none" stroke="red" stroke-width="0.5"/>
<path d="M78.6 226.54L78.6 208.17Z"
fill="none" stroke="red" stroke-width="0.5"/>
<path d="M78.6 208.17L188.8 208.17"
fill="none" stroke="red" stroke-width="0.5"/>
<path d="M188.8 208.17L188.8 226.54Z"
fill="none" stroke="red" stroke-width="0.5"/>
<path d="M188.8 226.54L78.6 226.54"
fill="none" stroke="red" stroke-width="0.5"/>
<path d="M577.96 355.1L577.76 357.18"
fill="none" stroke="red" stroke-width="0.5"/>
<path d="M577.76 357.18L577.17 359.19"
fill="none" stroke="red" stroke-width="0.5"/>
<path d="M577.17 359.19L576.21 361.05"
fill="none" stroke="red" stroke-width="0.5"/>
<path d="M576.21 361.05L574.92 362.7"
fill="none" stroke="red" stroke-width="0.5"/>
<path d="M574.92 362.7L573.34 364.07"
fill="none" stroke="red" stroke-width="0.5"/>
<path d="M573.34 364.07L571.52 365.12"
fill="none" stroke="red" stroke-width="0.5"/>
<path d="M571.52 365.12L569.54 365.81"
fill="none" stroke="red" stroke-width="0.5"/>
<path d="M569.54 365.81L567.47 366.1"
fill="none" stroke="red" stroke-width="0.5"/>
<path d="M567.47 366.1L565.38 366"
fill="none" stroke="red" stroke-width="0.5"/>
<path d="M565.38 366L563.34 365.51"
fill="none" stroke="red" stroke-width="0.5"/>
<path d="M563.34 365.51L561.43 364.64"
fill="none" stroke="red" stroke-width="0.5"/>
<path d="M561.43 364.64L559.73 363.42"
fill="none" stroke="red" stroke-width="0.5"/>
<path d="M559.73 363.42L558.28 361.91"
fill="none" stroke="red" stroke-width="0.5"/>
<path d="M558.28 361.91L557.15 360.15"
fill="none" stroke="red" stroke-width="0.5"/>
<path d="M557.15 360.15L556.37 358.2"
fill="none" stroke="red" stroke-width="0.5"/>
<path d="M556.37 358.2L555.97 356.14"
fill="none" stroke="red" stroke-width="0.5"/>
<path d="M555.97 356.14L555.97 354.05Z"
fill="none" stroke="red" stroke-width="0.5"/>
<path d="M555.97 354.05L556.37 351.99"
fill="none" stroke="red" stroke-width="0.5"/>
<path d="M556.37 351.99L557.15 350.05"
fill="none" stroke="red" stroke-width="0.5"/>
<path d="M557.15 350.05L558.28 348.28"
fill="none" stroke="red" stroke-width="0.5"/>
<path d="M558.28 348.28L559.73 346.77"
fill="none" stroke="red" stroke-width="0.5"/>
<path d="M559.73 346.77L561.43 345.55"
fill="none" stroke="red" stroke-width="0.5"/>
<path d="M561.43 345.55L563.34 344.68"
fill="none" stroke="red" stroke-width="0.5"/>
<path d="M563.34 344.68L565.38 344.19"
fill="none" stroke="red" stroke-width="0.5"/>
<path d="M565.38 344.19L567.47 344.09"
fill="none" stroke="red" stroke-width="0.5"/>
<path d="M567.47 344.09L569.54 344.39"
fill="none" stroke="red" stroke-width="0.5"/>
<path d="M569.54 344.39L571.52 345.07"
fill="none" stroke="red" stroke-width="0.5"/>
<path d="M571.52 345.07L573.34 346.12"
fill="none" stroke="red" stroke-width="0.5"/>
<path d="M573.34 346.12L574.92 347.49"
fill="none" stroke="red" stroke-width="0.5"/>
<path d="M574.92 347.49L576.21 349.14"
fill="none" stroke="red" stroke-width="0.5"/>
<path d="M576.21 349.14L577.17 351"
fill="none" stroke="red" stroke-width="0.5"/>
<path d="M577.17 351L577.76 353.01"
fill="none" stroke="red" stroke-width="0.5"/>
<path d="M577.76 353.01L577.96 355.1"
fill="none" stroke="red" stroke-width="0.5"/>
<path d="M243.71 355.1L243.51 357.18"
fill="none" stroke="red" stroke-width="0.5"/>
<path d="M243.51 357.18L242.92 359.19"
fill="none" stroke="red" stroke-width="0.5"/>
<path d="M242.92 359.19L241.96 361.05"
fill="none" stroke="red" stroke-width="0.5"/>
<path d="M241.96 361.05L240.67 362.7"
fill="none" stroke="red" stroke-width="0.5"/>
<path d="M240.67 362.7L239.08 364.07"
fill="none" stroke="red" stroke-width="0.5"/>
<path d="M239.08 364.07L237.27 365.12"
fill="none" stroke="red" stroke-width="0.5"/>
<path d="M237.27 365.12L235.29 365.81"
fill="none" stroke="red" stroke-width="0.5"/>
<path d="M235.29 365.81L233.22 366.1"
fill="none" stroke="red" stroke-width="0.5"/>
<path d="M233.22 366.1L231.12 366"
fill="none" stroke="red" stroke-width="0.5"/>
<path d="M231.12 366L229.09 365.51"
fill="none" stroke="red" stroke-width="0.5"/>
<path d="M229.09 365.51L227.18 364.64"
fill="none" stroke="red" stroke-width="0.5"/>
<path d="M227.18 364.64L225.48 363.42"
fill="none" stroke="red" stroke-width="0.5"/>
<path d="M225.48 363.42L224.03 361.91"
fill="none" stroke="red" stroke-width="0.5"/>
<path d="M224.03 361.91L222.9 360.15"
fill="none" stroke="red" stroke-width="0.5"/>
<path d="M222.9 360.15L222.12 358.2"
fill="none" stroke="red" stroke-width="0.5"/>
<path d="M222.12 358.2L221.72 356.14"
fill="none" stroke="red" stroke-width="0.5"/>
<path d="M221.72 356.14L221.72 354.05Z"
fill="none" stroke="red" stroke-width="0.5"/>
<path d="M221.72 354.05L222.12 351.99"
fill="none" stroke="red" stroke-width="0.5"/>
<path d="M222.12 351.99L222.9 350.05"
fill="none" stroke="red" stroke-width="0.5"/>
<path d="M222.9 350.05L224.03 348.28"
fill="none" stroke="red" stroke-width="0.5"/>
<path d="M224.03 348.28L225.48 346.77"
fill="none" stroke="red" stroke-width="0.5"/>
<path d="M225.48 346.77L227.18 345.55"
fill="none" stroke="red" stroke-width="0.5"/>
<path d="M227.18 345.55L229.09 344.68"
fill="none" stroke="red" stroke-width="0.5"/>
<path d="M229.09 344.68L231.12 344.19"
fill="none" stroke="red" stroke-width="0.5"/>
<path d="M231.12 344.19L233.22 344.09"
fill="none" stroke="red" stroke-width="0.5"/>
<path d="M233.22 344.09L235.29 344.39"
fill="none" stroke="red" stroke-width="0.5"/>
<path d="M235.29 344.39L237.27 345.07"
fill="none" stroke="red" stroke-width="0.5"/>
<path d="M237.27 345.07L239.08 346.12"
fill="none" stroke="red" stroke-width="0.5"/>
<path d="M239.08 346.12L240.67 347.49"
fill="none" stroke="red" stroke-width="0.5"/>
<path d="M240.67 347.49L241.96 349.14"
fill="none" stroke="red" stroke-width="0.5"/>
<path d="M241.96 349.14L242.92 351"
fill="none" stroke="red" stroke-width="0.5"/>
<path d="M242.92 351L243.51 353.01"
fill="none" stroke="red" stroke-width="0.5"/>
<path d="M243.51 353.01L243.71 355.1"
fill="none" stroke="red" stroke-width="0.5"/>
</svg>
