<?xml version="1.0" encoding="UTF-8"?>
<svg xmlns="http://www.w3.org/2000/svg" width="800.000" height="600.000" viewBox="0.0 0.0 800.000 600.000" version="1.1">
  <desc>Produce by Acme CAD Converter</desc>
<path d="M355.92 54.82L342.15 54.82"
fill="none" stroke="red" stroke-width="0.5"/>
<path d="M342.15 54.82L342.15 140.91Z"
fill="none" stroke="red" stroke-width="0.5"/>
<path d="M342.15 140.91L355.92 140.91"
fill="none" stroke="red" stroke-width="0.5"/>
<path d="M355.92 140.91L355.92 54.82Z"
fill="none" stroke="red" stroke-width="0.5"/>
<path d="M355.92 54.82L342.15 54.82"
fill="none" stroke="red" stroke-width="0.5"/>
<path d="M342.15 54.82L342.15 140.91Z"
fill="none" stroke="red" stroke-width="0.5"/>
<path d="M342.15 140.91L355.92 140.91"
fill="none" stroke="red" stroke-width="0.5"/>
<path d="M355.92 140.91L355.92 54.82Z"
fill="none" stroke="red" stroke-width="0.5"/>
<path d="M355.92 213.22L342.15 213.22"
fill="none" stroke="red" stroke-width="0.5"/>
<path d="M342.15 213.22L342.15 386.78Z"
fill="none" stroke="red" stroke-width="0.5"/>
<path d="M342.15 386.78L355.92 386.78"
fill="none" stroke="red" stroke-width="0.5"/>
<path d="M355.92 386.78L355.92 213.22Z"
fill="none" stroke="red" stroke-width="0.5"/>
<path d="M355.92 213.22L342.15 213.22"
fill="none" stroke="red" stroke-width="0.5"/>
<path d="M342.15 213.22L342.15 386.78Z"
fill="none" stroke="red" stroke-width="0.5"/>
<path d="M342.15 386.78L355.92 386.78"
fill="none" stroke="red" stroke-width="0.5"/>
<path d="M355.92 386.78L355.92 213.22Z"
fill="none" stroke="red" stroke-width="0.5"/>
<path d="M355.92 459.09L342.15 459.09"
fill="none" stroke="red" stroke-width="0.5"/>
<path d="M342.15 459.09L342.15 545.18Z"
fill="none" stroke="red" stroke-width="0.5"/>
<path d="M342.15 545.18L355.92 545.18"
fill="none" stroke="red" stroke-width="0.5"/>
<path d="M355.92 545.18L355.92 459.09Z"
fill="none" stroke="red" stroke-width="0.5"/>
<path d="M355.92 459.09L342.15 459.09"
fill="none" stroke="red" stroke-width="0.5"/>
<path d="M342.15 459.09L342.15 545.18Z"
fill="none" stroke="red" stroke-width="0.5"/>
<path d="M342.15 545.18L355.92 545.18"
fill="none" stroke="red" stroke-width="0.5"/>
<path d="M355.92 545.18L355.92 459.09Z"
fill="none" stroke="red" stroke-width="0.5"/>
<path d="M320.11 558.95L342.15 558.95"
fill="none" stroke="red" stroke-width="0.5"/>
<path d="M342.15 558.95L342.15 572.73Z"
fill="none" stroke="red" stroke-width="0.5"/>
<path d="M342.15 572.73L383.47 572.73"
fill="none" stroke="red" stroke-width="0.5"/>
<path d="M383.47 572.73L383.47 558.95Z"
fill="none" stroke="red" stroke-width="0.5"/>
<path d="M383.47 558.95L438.57 558.95"
fill="none" stroke="red" stroke-width="0.5"/>
<path d="M438.57 558.95L438.57 572.73Z"
fill="none" stroke="red" stroke-width="0.5"/>
<path d="M438.57 572.73L479.89 572.73"
fill="none" stroke="red" stroke-width="0.5"/>
<path d="M479.89 572.73L479.89 558.95Z"
fill="none" stroke="red" stroke-width="0.5"/>
<path d="M479.89 558.95L479.89 545.18Z"
fill="none" stroke="red" stroke-width="0.5"/>
<path d="M479.89 545.18L466.12 545.18"
fill="none" stroke="red" stroke-width="0.5"/>
<path d="M466.12 545.18L466.12 459.09Z"
fill="none" stroke="red" stroke-width="0.5"/>
<path d="M466.12 459.09L479.89 459.09"
fill="none" stroke="red" stroke-width="0.5"/>
<path d="M479.89 459.09L479.89 386.78Z"
fill="none" stroke="red" stroke-width="0.5"/>
<path d="M479.89 386.78L466.12 386.78"
fill="none" stroke="red" stroke-width="0.5"/>
<path d="M466.12 386.78L466.12 213.22Z"
fill="none" stroke="red" stroke-width="0.5"/>
<path d="M466.12 213.22L479.89 213.22"
fill="none" stroke="red" stroke-width="0.5"/>
<path d="M479.89 213.22L479.89 140.91Z"
fill="none" stroke="red" stroke-width="0.5"/>
<path d="M479.89 140.91L466.12 140.91"
fill="none" stroke="red" stroke-width="0.5"/>
<path d="M466.12 140.91L466.12 54.82Z"
fill="none" stroke="red" stroke-width="0.5"/>
<path d="M466.12 54.82L479.89 54.82"
fill="none" stroke="red" stroke-width="0.5"/>
<path d="M479.89 54.82L479.89 41.05Z"
fill="none" stroke="red" stroke-width="0.5"/>
<path d="M479.89 41.05L466.12 41.05"
fill="none" stroke="red" stroke-width="0.5"/>
<path d="M466.12 41.05L466.12 27.27Z"
fill="none" stroke="red" stroke-width="0.5"/>
<path d="M466.12 27.27L438.56 27.27"
fill="none" stroke="red" stroke-width="0.5"/>
<path d="M438.56 27.27L438.56 41.05Z"
fill="none" stroke="red" stroke-width="0.5"/>
<path d="M438.56 41.05L383.47 41.05"
fill="none" stroke="red" stroke-width="0.5"/>
<path d="M383.47 41.05L383.47 27.27Z"
fill="none" stroke="red" stroke-width="0.5"/>
<path d="M383.47 27.27L342.15 27.27"
fill="none" stroke="red" stroke-width="0.5"/>
<path d="M320.11 558.95L320.11 41.05Z"
fill="none" stroke="red" stroke-width="0.5"/>
<path d="M320.11 41.05L342.15 41.05"
fill="none" stroke="red" stroke-width="0.5"/>
<path d="M342.15 41.05L342.15 27.27Z"
fill="none" stroke="red" stroke-width="0.5"/>
<path d="M479.89 572.73L479.89 545.18Z"
fill="none" stroke="red" stroke-width="0.5"/>
<path d="M479.89 545.18L466.12 545.18"
fill="none" stroke="red" stroke-width="0.5"/>
<path d="M466.12 545.18L466.12 459.09Z"
fill="none" stroke="red" stroke-width="0.5"/>
<path d="M466.12 459.09L479.89 459.09"
fill="none" stroke="red" stroke-width="0.5"/>
<path d="M479.89 459.09L479.89 386.78Z"
fill="none" stroke="red" stroke-width="0.5"/>
<path d="M479.89 386.78L466.12 386.78"
fill="none" stroke="red" stroke-width="0.5"/>
<path d="M466.12 386.78L466.12 213.22Z"
fill="none" stroke="red" stroke-width="0.5"/>
<path d="M466.12 213.22L479.89 213.22"
fill="none" stroke="red" stroke-width="0.5"/>
<path d="M479.89 213.22L479.89 140.91Z"
fill="none" stroke="red" stroke-width="0.5"/>
<path d="M479.89 140.91L466.12 140.91"
fill="none" stroke="red" stroke-width="0.5"/>
<path d="M466.12 140.91L466.12 54.82Z"
fill="none" stroke="red" stroke-width="0.5"/>
<path d="M466.12 54.82L479.89 54.82"
fill="none" stroke="red" stroke-width="0.5"/>
<path d="M479.89 54.82L479.89 41.05Z"
fill="none" stroke="red" stroke-width="0.5"/>
<path d="M405.51 300L405.32 301.43"
fill="none" stroke="red" stroke-width="0.5"/>
<path d="M405.32 301.43L404.77 302.75"
fill="none" stroke="red" stroke-width="0.5"/>
<path d="M404.77 302.75L403.9 303.9"
fill="none" stroke="red" stroke-width="0.5"/>
<path d="M403.9 303.9L402.76 304.77"
fill="none" stroke="red" stroke-width="0.5"/>
<path d="M402.76 304.77L401.43 305.32"
fill="none" stroke="red" stroke-width="0.5"/>
<path d="M401.43 305.32L400 305.51"
fill="none" stroke="red" stroke-width="0.5"/>
<path d="M400 305.51L398.58 305.32"
fill="none" stroke="red" stroke-width="0.5"/>
<path d="M398.58 305.32L397.25 304.77"
fill="none" stroke="red" stroke-width="0.5"/>
<path d="M397.25 304.77L396.11 303.9"
fill="none" stroke="red" stroke-width="0.5"/>
<path d="M396.11 303.9L395.23 302.75"
fill="none" stroke="red" stroke-width="0.5"/>
<path d="M395.23 302.75L394.68 301.43"
fill="none" stroke="red" stroke-width="0.5"/>
<path d="M394.68 301.43L394.49 300"
fill="none" stroke="red" stroke-width="0.5"/>
<path d="M394.49 300L394.68 298.57"
fill="none" stroke="red" stroke-width="0.5"/>
<path d="M394.68 298.57L395.23 297.25"
fill="none" stroke="red" stroke-width="0.5"/>
<path d="M395.23 297.25L396.11 296.1"
fill="none" stroke="red" stroke-width="0.5"/>
<path d="M396.11 296.1L397.25 295.23"
fill="none" stroke="red" stroke-width="0.5"/>
<path d="M397.25 295.23L398.58 294.68"
fill="none" stroke="red" stroke-width="0.5"/>
<path d="M398.58 294.68L400 294.49"
fill="none" stroke="red" stroke-width="0.5"/>
<path d="M400 294.49L401.43 294.68"
fill="none" stroke="red" stroke-width="0.5"/>
<path d="M401.43 294.68L402.76 295.23"
fill="none" stroke="red" stroke-width="0.5"/>
<path d="M402.76 295.23L403.9 296.1"
fill="none" stroke="red" stroke-width="0.5"/>
<path d="M403.9 296.1L404.77 297.25"
fill="none" stroke="red" stroke-width="0.5"/>
<path d="M404.77 297.25L405.32 298.57"
fill="none" stroke="red" stroke-width="0.5"/>
<path d="M405.32 298.57L405.51 300"
fill="none" stroke="red" stroke-width="0.5"/>
<path d="M320.11 41.05L320.11 206.34Z"
fill="none" stroke="red" stroke-width="0.5"/>
<path d="M405.51 300L405.32 301.43"
fill="none" stroke="red" stroke-width="0.5"/>
<path d="M405.32 301.43L404.77 302.75"
fill="none" stroke="red" stroke-width="0.5"/>
<path d="M404.77 302.75L403.9 303.9"
fill="none" stroke="red" stroke-width="0.5"/>
<path d="M403.9 303.9L402.76 304.77"
fill="none" stroke="red" stroke-width="0.5"/>
<path d="M402.76 304.77L401.43 305.32"
fill="none" stroke="red" stroke-width="0.5"/>
<path d="M401.43 305.32L400 305.51"
fill="none" stroke="red" stroke-width="0.5"/>
<path d="M400 305.51L398.58 305.32"
fill="none" stroke="red" stroke-width="0.5"/>
<path d="M398.58 305.32L397.25 304.77"
fill="none" stroke="red" stroke-width="0.5"/>
<path d="M397.25 304.77L396.11 303.9"
fill="none" stroke="red" stroke-width="0.5"/>
<path d="M396.11 303.9L395.23 302.75"
fill="none" stroke="red" stroke-width="0.5"/>
<path d="M395.23 302.75L394.68 301.43"
fill="none" stroke="red" stroke-width="0.5"/>
<path d="M394.68 301.43L394.49 300"
fill="none" stroke="red" stroke-width="0.5"/>
<path d="M394.49 300L394.68 298.57"
fill="none" stroke="red" stroke-width="0.5"/>
<path d="M394.68 298.57L395.23 297.25"
fill="none" stroke="red" stroke-width="0.5"/>
<path d="M395.23 297.25L396.11 296.1"
fill="none" stroke="red" stroke-width="0.5"/>
<path d="M396.11 296.1L397.25 295.23"
fill="none" stroke="red" stroke-width="0.5"/>
<path d="M397.25 295.23L398.58 294.68"
fill="none" stroke="red" stroke-width="0.5"/>
<path d="M398.58 294.68L400 294.49"
fill="none" stroke="red" stroke-width="0.5"/>
<path d="M400 294.49L401.43 294.68"
fill="none" stroke="red" stroke-width="0.5"/>
<path d="M401.43 294.68L402.76 295.23"
fill="none" stroke="red" stroke-width="0.5"/>
<path d="M402.76 295.23L403.9 296.1"
fill="none" stroke="red" stroke-width="0.5"/>
<path d="M403.9 296.1L404.77 297.25"
fill="none" stroke="red" stroke-width="0.5"/>
<path d="M404.77 297.25L405.32 298.57"
fill="none" stroke="red" stroke-width="0.5"/>
<path d="M405.32 298.57L405.51 300"
fill="none" stroke="red" stroke-width="0.5"/>
</svg>
