<?xml version="1.0" encoding="UTF-8"?>
<svg xmlns="http://www.w3.org/2000/svg" width="800.000" height="600.000" viewBox="0.0 0.0 800.000 600.000" version="1.1">
  <desc>Produce by Acme CAD Converter</desc>
<path d="M127.27 572.73L127.27 558.22Z"
fill="none" stroke="red" stroke-width="0.5"/>
<path d="M127.27 558.22L98.26 558.22"
fill="none" stroke="red" stroke-width="0.5"/>
<path d="M98.26 558.22L98.26 467.55Z"
fill="none" stroke="red" stroke-width="0.5"/>
<path d="M98.26 467.55L127.27 467.55"
fill="none" stroke="red" stroke-width="0.5"/>
<path d="M127.27 467.55L127.27 391.39Z"
fill="none" stroke="red" stroke-width="0.5"/>
<path d="M127.27 391.39L98.26 391.39"
fill="none" stroke="red" stroke-width="0.5"/>
<path d="M98.26 391.39L98.26 208.61Z"
fill="none" stroke="red" stroke-width="0.5"/>
<path d="M98.26 208.61L127.27 208.61"
fill="none" stroke="red" stroke-width="0.5"/>
<path d="M127.27 208.61L127.27 132.45Z"
fill="none" stroke="red" stroke-width="0.5"/>
<path d="M127.27 132.45L98.26 132.45"
fill="none" stroke="red" stroke-width="0.5"/>
<path d="M98.26 132.45L98.26 41.78Z"
fill="none" stroke="red" stroke-width="0.5"/>
<path d="M98.26 41.78L127.27 41.78"
fill="none" stroke="red" stroke-width="0.5"/>
<path d="M127.27 41.78L127.27 27.27Z"
fill="none" stroke="red" stroke-width="0.5"/>
<path d="M127.27 27.27L672.73 27.27"
fill="none" stroke="red" stroke-width="0.5"/>
<path d="M672.73 27.27L672.73 41.78Z"
fill="none" stroke="red" stroke-width="0.5"/>
<path d="M672.73 41.78L701.74 41.78"
fill="none" stroke="red" stroke-width="0.5"/>
<path d="M701.74 41.78L701.74 132.45Z"
fill="none" stroke="red" stroke-width="0.5"/>
<path d="M701.74 132.45L672.73 132.45"
fill="none" stroke="red" stroke-width="0.5"/>
<path d="M672.73 132.45L672.73 208.61Z"
fill="none" stroke="red" stroke-width="0.5"/>
<path d="M672.73 208.61L701.74 208.61"
fill="none" stroke="red" stroke-width="0.5"/>
<path d="M701.74 208.61L701.74 391.39Z"
fill="none" stroke="red" stroke-width="0.5"/>
<path d="M701.74 391.39L672.73 391.39"
fill="none" stroke="red" stroke-width="0.5"/>
<path d="M672.73 391.39L672.73 467.55Z"
fill="none" stroke="red" stroke-width="0.5"/>
<path d="M672.73 467.55L701.74 467.55"
fill="none" stroke="red" stroke-width="0.5"/>
<path d="M701.74 467.55L701.74 558.22Z"
fill="none" stroke="red" stroke-width="0.5"/>
<path d="M701.74 558.22L672.73 558.22"
fill="none" stroke="red" stroke-width="0.5"/>
<path d="M672.73 558.22L672.73 572.73Z"
fill="none" stroke="red" stroke-width="0.5"/>
<path d="M672.73 572.73L127.27 572.73"
fill="none" stroke="red" stroke-width="0.5"/>
</svg>
