<?xml version="1.0" encoding="UTF-8"?>
<svg xmlns="http://www.w3.org/2000/svg" width="800.000" height="600.000" viewBox="0.0 0.0 800.000 600.000" version="1.1">
  <desc>Produce by Acme CAD Converter</desc>
<path d="M221.67 290.48L221.85 288.18"
fill="none" stroke="red" stroke-width="0.5"/>
<path d="M221.85 288.18L222.39 285.94"
fill="none" stroke="red" stroke-width="0.5"/>
<path d="M222.39 285.94L223.27 283.81"
fill="none" stroke="red" stroke-width="0.5"/>
<path d="M223.27 283.81L224.48 281.85"
fill="none" stroke="red" stroke-width="0.5"/>
<path d="M224.48 281.85L225.97 280.09"
fill="none" stroke="red" stroke-width="0.5"/>
<path d="M225.97 280.09L227.73 278.6"
fill="none" stroke="red" stroke-width="0.5"/>
<path d="M227.73 278.6L229.69 277.39"
fill="none" stroke="red" stroke-width="0.5"/>
<path d="M229.69 277.39L231.82 276.51"
fill="none" stroke="red" stroke-width="0.5"/>
<path d="M231.82 276.51L234.07 275.97"
fill="none" stroke="red" stroke-width="0.5"/>
<path d="M234.07 275.97L236.36 275.79"
fill="none" stroke="red" stroke-width="0.5"/>
<path d="M236.36 275.79L563.27 275.79"
fill="none" stroke="red" stroke-width="0.5"/>
<path d="M563.27 275.79L563.27 275.79Z"
fill="none" stroke="red" stroke-width="0.5"/>
<path d="M563.27 275.79L565.57 275.97"
fill="none" stroke="red" stroke-width="0.5"/>
<path d="M565.57 275.97L567.81 276.51"
fill="none" stroke="red" stroke-width="0.5"/>
<path d="M567.81 276.51L569.94 277.39"
fill="none" stroke="red" stroke-width="0.5"/>
<path d="M569.94 277.39L571.91 278.6"
fill="none" stroke="red" stroke-width="0.5"/>
<path d="M571.91 278.6L573.66 280.09"
fill="none" stroke="red" stroke-width="0.5"/>
<path d="M573.66 280.09L575.16 281.85"
fill="none" stroke="red" stroke-width="0.5"/>
<path d="M575.16 281.85L576.36 283.81"
fill="none" stroke="red" stroke-width="0.5"/>
<path d="M576.36 283.81L577.24 285.94"
fill="none" stroke="red" stroke-width="0.5"/>
<path d="M577.24 285.94L577.78 288.18"
fill="none" stroke="red" stroke-width="0.5"/>
<path d="M577.78 288.18L577.96 290.48"
fill="none" stroke="red" stroke-width="0.5"/>
<path d="M577.96 290.48L577.96 341.91Z"
fill="none" stroke="red" stroke-width="0.5"/>
<path d="M577.96 341.91L577.96 341.91Z"
fill="none" stroke="red" stroke-width="0.5"/>
<path d="M577.96 341.91L577.78 344.2"
fill="none" stroke="red" stroke-width="0.5"/>
<path d="M577.78 344.2L577.24 346.45"
fill="none" stroke="red" stroke-width="0.5"/>
<path d="M577.24 346.45L576.36 348.58"
fill="none" stroke="red" stroke-width="0.5"/>
<path d="M576.36 348.58L575.16 350.54"
fill="none" stroke="red" stroke-width="0.5"/>
<path d="M575.16 350.54L573.66 352.3"
fill="none" stroke="red" stroke-width="0.5"/>
<path d="M573.66 352.3L571.91 353.79"
fill="none" stroke="red" stroke-width="0.5"/>
<path d="M571.91 353.79L569.94 355"
fill="none" stroke="red" stroke-width="0.5"/>
<path d="M569.94 355L567.81 355.88"
fill="none" stroke="red" stroke-width="0.5"/>
<path d="M567.81 355.88L565.57 356.42"
fill="none" stroke="red" stroke-width="0.5"/>
<path d="M565.57 356.42L563.27 356.6"
fill="none" stroke="red" stroke-width="0.5"/>
<path d="M563.27 356.6L236.36 356.6"
fill="none" stroke="red" stroke-width="0.5"/>
<path d="M236.36 356.6L236.36 356.6Z"
fill="none" stroke="red" stroke-width="0.5"/>
<path d="M236.36 356.6L234.07 356.42"
fill="none" stroke="red" stroke-width="0.5"/>
<path d="M234.07 356.42L231.82 355.88"
fill="none" stroke="red" stroke-width="0.5"/>
<path d="M231.82 355.88L229.69 355"
fill="none" stroke="red" stroke-width="0.5"/>
<path d="M229.69 355L227.73 353.79"
fill="none" stroke="red" stroke-width="0.5"/>
<path d="M227.73 353.79L225.97 352.3"
fill="none" stroke="red" stroke-width="0.5"/>
<path d="M225.97 352.3L224.48 350.54"
fill="none" stroke="red" stroke-width="0.5"/>
<path d="M224.48 350.54L223.27 348.58"
fill="none" stroke="red" stroke-width="0.5"/>
<path d="M223.27 348.58L222.39 346.45"
fill="none" stroke="red" stroke-width="0.5"/>
<path d="M222.39 346.45L221.85 344.2"
fill="none" stroke="red" stroke-width="0.5"/>
<path d="M221.85 344.2L221.67 341.91"
fill="none" stroke="red" stroke-width="0.5"/>
<path d="M221.67 341.91L221.67 290.48Z"
fill="none" stroke="red" stroke-width="0.5"/>
<path d="M54.73 222.86L54.73 277.96Z"
fill="none" stroke="red" stroke-width="0.5"/>
<path d="M54.73 277.96L36.36 277.96"
fill="none" stroke="red" stroke-width="0.5"/>
<path d="M36.36 277.96L36.36 351.42Z"
fill="none" stroke="red" stroke-width="0.5"/>
<path d="M36.36 351.42L54.73 351.42"
fill="none" stroke="red" stroke-width="0.5"/>
<path d="M54.73 351.42L54.73 406.52Z"
fill="none" stroke="red" stroke-width="0.5"/>
<path d="M54.73 406.52L745.27 406.52"
fill="none" stroke="red" stroke-width="0.5"/>
<path d="M745.27 406.52L745.27 351.42Z"
fill="none" stroke="red" stroke-width="0.5"/>
<path d="M745.27 351.42L763.64 351.42"
fill="none" stroke="red" stroke-width="0.5"/>
<path d="M763.64 351.42L763.64 277.96Z"
fill="none" stroke="red" stroke-width="0.5"/>
<path d="M763.64 277.96L745.27 277.96"
fill="none" stroke="red" stroke-width="0.5"/>
<path d="M745.27 277.96L745.27 222.86Z"
fill="none" stroke="red" stroke-width="0.5"/>
<path d="M745.27 222.86L763.64 222.86"
fill="none" stroke="red" stroke-width="0.5"/>
<path d="M763.64 222.86L763.64 193.48Z"
fill="none" stroke="red" stroke-width="0.5"/>
<path d="M763.64 193.48L36.36 193.48"
fill="none" stroke="red" stroke-width="0.5"/>
<path d="M36.36 193.48L36.36 222.86Z"
fill="none" stroke="red" stroke-width="0.5"/>
<path d="M36.36 222.86L54.73 222.86"
fill="none" stroke="red" stroke-width="0.5"/>
<path d="M78.6 241.23L78.6 222.87Z"
fill="none" stroke="red" stroke-width="0.5"/>
<path d="M78.6 222.87L188.8 222.87"
fill="none" stroke="red" stroke-width="0.5"/>
<path d="M188.8 222.87L188.8 241.23Z"
fill="none" stroke="red" stroke-width="0.5"/>
<path d="M188.8 241.23L78.6 241.23"
fill="none" stroke="red" stroke-width="0.5"/>
<path d="M298.99 241.23L298.99 222.87Z"
fill="none" stroke="red" stroke-width="0.5"/>
<path d="M298.99 222.87L501.01 222.87"
fill="none" stroke="red" stroke-width="0.5"/>
<path d="M501.01 222.87L501.01 241.23Z"
fill="none" stroke="red" stroke-width="0.5"/>
<path d="M501.01 241.23L298.99 241.23"
fill="none" stroke="red" stroke-width="0.5"/>
<path d="M611.2 241.23L611.2 222.87Z"
fill="none" stroke="red" stroke-width="0.5"/>
<path d="M611.2 222.87L721.4 222.87"
fill="none" stroke="red" stroke-width="0.5"/>
<path d="M721.4 222.87L721.4 241.23Z"
fill="none" stroke="red" stroke-width="0.5"/>
<path d="M721.4 241.23L611.2 241.23"
fill="none" stroke="red" stroke-width="0.5"/>
<path d="M581.95 277.96L611.34 277.96"
fill="none" stroke="red" stroke-width="0.5"/>
<path d="M611.34 277.96L611.34 344.33Z"
fill="none" stroke="red" stroke-width="0.5"/>
<path d="M611.34 344.33L581.95 344.33"
fill="none" stroke="red" stroke-width="0.5"/>
<path d="M581.95 344.33L581.95 277.96Z"
fill="none" stroke="red" stroke-width="0.5"/>
<path d="M216.89 344.33L187.51 344.33"
fill="none" stroke="red" stroke-width="0.5"/>
<path d="M187.51 344.33L187.51 277.96Z"
fill="none" stroke="red" stroke-width="0.5"/>
<path d="M187.51 277.96L216.89 277.96"
fill="none" stroke="red" stroke-width="0.5"/>
<path d="M216.89 277.96L216.89 344.33Z"
fill="none" stroke="red" stroke-width="0.5"/>
</svg>
